<?xml version="1.0" encoding="utf-8"?>
<!-- Generator: Adobe Illustrator 21.0.0, SVG Export Plug-In . SVG Version: 6.00 Build 0)  -->
<svg version="1.1" id="图层_1" xmlns="http://www.w3.org/2000/svg" xmlns:xlink="http://www.w3.org/1999/xlink" x="0px" y="0px"
	 viewBox="0 0 1366 768" style="enable-background:new 0 0 1366 768;" xml:space="preserve">
<style type="text/css">
	.st0{fill:#BBBBBB;}
	.st1{fill:#FFFFFF;}
</style>
<path class="st0" d="M293.3,407c-2.2,12.6-8,23.9-16.4,32.8c9.1,4.2,17.3,10.7,17.3,20.2H166c0-9.5,8.2-16,17.3-20.2
	c-8.4-8.9-14.2-20.2-16.4-32.8c-9.6,14.1-23.9,21.1-23.9,21.1c0-36.7,22.9-86.4,22.9-86.4v-18.2c0-35.2,28.7-63.6,64.1-63.6
	c35.4,0,64.1,28.5,64.1,63.6v18.2c0,0,22.9,49.7,22.9,86.4C317.1,428.2,302.9,421.2,293.3,407L293.3,407z"/>
<g>
	<path class="st0" d="M278.5,510.8c2.3,0,4.6,0.2,6.8,0.4c-6.1-28.5-36.6-49.7-71.4-49.7c-38.9,0-70.8,26.5-70.8,60.2
		c0,19.5,10.6,35.4,28.3,47.8l-7.1,21.3l24.7-12.4c8.9,1.8,16,3.6,24.8,3.6c2.2,0,4.4-0.1,6.6-0.3c-1.4-4.7-2.2-9.7-2.2-14.8
		C218.3,535.9,244.9,510.8,278.5,510.8z M240.4,491.6c5.3,0,8.9,3.5,8.9,8.8c0,5.3-3.5,8.9-8.9,8.9c-5.3,0-10.6-3.6-10.6-8.9
		C229.8,495.1,235.1,491.6,240.4,491.6z M190.9,509.3c-5.3,0-10.7-3.6-10.7-8.9c0-5.3,5.4-8.8,10.7-8.8c5.3,0,8.8,3.5,8.8,8.8
		C199.7,505.8,196.2,509.3,190.9,509.3z"/>
	<path class="st0" d="M343.1,566c0-28.3-28.3-51.4-60.1-51.4c-33.7,0-60.2,23.1-60.2,51.4c0,28.4,26.5,51.4,60.2,51.4
		c7,0,14.2-1.8,21.2-3.6l19.4,10.6l-5.3-17.7C332.5,596.1,343.1,582,343.1,566z M263.5,557.2c-3.5,0-7.1-3.5-7.1-7.1
		c0-3.5,3.6-7.1,7.1-7.1c5.4,0,8.9,3.6,8.9,7.1C272.3,553.7,268.8,557.2,263.5,557.2z M302.4,557.2c-3.5,0-7-3.5-7-7.1
		c0-3.5,3.5-7.1,7-7.1c5.3,0,8.9,3.6,8.9,7.1C311.2,553.7,307.7,557.2,302.4,557.2z"/>
</g>
<path class="st0" d="M243.1,58c-55.2,0-100,44.8-100,100c0,55.2,44.8,100,100,100c55.2,0,100-44.8,100-100
	C343.1,102.8,298.3,58,243.1,58z M300.5,187.7c-5.1,5.8-13.9,6.4-19.8,1.3l-37.6-32.9L205.5,189c-2.7,2.3-5.9,3.5-9.2,3.5
	c-3.9,0-7.8-1.6-10.5-4.8c-5.1-5.8-4.5-14.7,1.3-19.8l46.9-41c5.3-4.6,13.2-4.6,18.4,0l46.9,41C305,173.1,305.6,181.9,300.5,187.7z"
	/>
<path class="st1" d="M495.3,407c-2.2,12.6-8,23.9-16.4,32.8c9.1,4.2,17.3,10.7,17.3,20.2H368c0-9.5,8.2-16,17.3-20.2
	c-8.4-8.9-14.2-20.2-16.4-32.8c-9.6,14.1-23.9,21.1-23.9,21.1c0-36.7,22.9-86.4,22.9-86.4v-18.2c0-35.2,28.7-63.6,64.1-63.6
	c35.4,0,64.1,28.5,64.1,63.6v18.2c0,0,22.9,49.7,22.9,86.4C519.1,428.2,504.9,421.2,495.3,407L495.3,407z"/>
<g>
	<path class="st1" d="M480.5,510.8c2.3,0,4.6,0.2,6.8,0.4c-6.1-28.5-36.6-49.7-71.4-49.7c-38.9,0-70.8,26.5-70.8,60.2
		c0,19.5,10.6,35.4,28.3,47.8l-7.1,21.3l24.7-12.4c8.9,1.8,16,3.6,24.8,3.6c2.2,0,4.4-0.1,6.6-0.3c-1.4-4.7-2.2-9.7-2.2-14.8
		C420.3,535.9,446.9,510.8,480.5,510.8z M442.4,491.6c5.3,0,8.9,3.5,8.9,8.8c0,5.3-3.5,8.9-8.9,8.9c-5.3,0-10.6-3.6-10.6-8.9
		C431.8,495.1,437.1,491.6,442.4,491.6z M392.9,509.3c-5.3,0-10.7-3.6-10.7-8.9c0-5.3,5.4-8.8,10.7-8.8c5.3,0,8.8,3.5,8.8,8.8
		C401.7,505.8,398.2,509.3,392.9,509.3z"/>
	<path class="st1" d="M545.1,566c0-28.3-28.3-51.4-60.1-51.4c-33.7,0-60.2,23.1-60.2,51.4c0,28.4,26.5,51.4,60.2,51.4
		c7,0,14.2-1.8,21.2-3.6l19.4,10.6l-5.3-17.7C534.5,596.1,545.1,582,545.1,566z M465.5,557.2c-3.5,0-7.1-3.5-7.1-7.1
		c0-3.5,3.6-7.1,7.1-7.1c5.4,0,8.9,3.6,8.9,7.1C474.3,553.7,470.8,557.2,465.5,557.2z M504.4,557.2c-3.5,0-7-3.5-7-7.1
		c0-3.5,3.5-7.1,7-7.1c5.3,0,8.9,3.6,8.9,7.1C513.2,553.7,509.7,557.2,504.4,557.2z"/>
</g>
<path class="st1" d="M445.1,58c-55.2,0-100,44.8-100,100c0,55.2,44.8,100,100,100c55.2,0,100-44.8,100-100
	C545.1,102.8,500.3,58,445.1,58z M502.5,187.7c-5.1,5.8-13.9,6.4-19.8,1.3l-37.6-32.9L407.5,189c-2.7,2.3-5.9,3.5-9.2,3.5
	c-3.9,0-7.8-1.6-10.5-4.8c-5.1-5.8-4.5-14.7,1.3-19.8l46.9-41c5.3-4.6,13.2-4.6,18.4,0l46.9,41C507,173.1,507.6,181.9,502.5,187.7z"
	/>
</svg>
