<?xml version="1.0" encoding="utf-8"?>
<!-- Generator: Adobe Illustrator 21.0.0, SVG Export Plug-In . SVG Version: 6.00 Build 0)  -->
<svg version="1.1" id="图层_1" xmlns="http://www.w3.org/2000/svg" xmlns:xlink="http://www.w3.org/1999/xlink" x="0px" y="0px"
	 viewBox="0 0 200 200" style="enable-background:new 0 0 200 200;" xml:space="preserve">
<style type="text/css">
	.st0{fill:#FFFFFF;}
	.st1{fill:#57C5F7;}
</style>
<path class="st0" d="M157,78.3c-5.1,5.8-13.9,6.4-19.8,1.3L99.6,46.7L62,79.6c-2.7,2.3-5.9,3.5-9.2,3.5c-3.9,0-7.8-1.6-10.5-4.8
	c-5.1-5.8-4.5-14.7,1.3-19.8l46.9-41c5.3-4.6,13.2-4.6,18.4,0l46.9,41C161.5,63.7,162.1,72.5,157,78.3z"/>
<path class="st1" d="M157,164.3c-5.1,5.8-13.9,6.4-19.8,1.3l-37.6-32.9L62,165.6c-2.7,2.3-5.9,3.5-9.2,3.5c-3.9,0-7.8-1.6-10.5-4.8
	c-5.1-5.8-4.5-14.7,1.3-19.8l46.9-41c5.3-4.6,13.2-4.6,18.4,0l46.9,41C161.5,149.7,162.1,158.4,157,164.3z"/>
</svg>
