<?xml version="1.0" encoding="utf-8"?>
<!-- Generator: Adobe Illustrator 21.0.0, SVG Export Plug-In . SVG Version: 6.00 Build 0)  -->
<svg version="1.1" id="图层_1" xmlns="http://www.w3.org/2000/svg" xmlns:xlink="http://www.w3.org/1999/xlink" x="0px" y="0px"
	 viewBox="0 0 200 200" style="enable-background:new 0 0 200 200;" xml:space="preserve">
<style type="text/css">
	.st0{fill:#999999;}
</style>
<g>
	<path class="st0" d="M38.7,9c0,0,2.1,0.1,7.6,5.8c4.6,4.8,9.2,10.9,12.1,15.2c4,5.8,7.8,11.8,10.5,17c4,7.6,4.2,10.2,4.2,10.6
		c0,0.5,0,1.7-2.7,3.5c-2.1,1.5-5.2,2.8-8.1,4.1c0,0,0,0,0,0c-3.8,1.6-7,3.1-9.2,4.8c-2.7,2.2-3.9,5.7-3.1,9.1
		c1,4.2,4.3,10.5,9.5,18.2c5.5,8.1,12.7,16.9,19.1,23.6c0.1,0.1,0.1,0.1,0.2,0.2c6.6,6.5,15.4,13.7,23.5,19.2
		c7.7,5.2,13.9,8.5,18.1,9.5c0.7,0.2,1.4,0.2,2.1,0.2c2.7,0,5.3-1.2,7-3.4c1.7-2.1,3.2-5.4,4.8-9.2c1.3-2.9,2.6-6,4-8.1
		c1.8-2.7,3.1-2.7,3.5-2.7c0.4,0,3,0.2,10.6,4.2c5.2,2.7,11.2,6.5,17,10.5c4.3,3,10.4,7.5,15.2,12.2c5.7,5.6,5.8,7.6,5.8,7.7
		c0,3-5.7,10.4-15.2,17.6c-3.8,2.9-17.3,12.3-28.6,12.3c-8.4,0-21.3-5.1-36.4-14.5c-15-9.3-31.3-22.2-45.8-36.3c0,0,0,0,0,0
		l-4.7-4.7c-14.1-14.5-27-30.8-36.2-45.9C14.1,74.4,9,61.4,9,53c0-11.4,9.4-24.9,12.3-28.8C28.3,14.8,35.8,9,38.7,9 M38.7,0
		c-9.8,0-21.3,14.4-24.6,18.8C9.8,24.5,0,39.1,0,53c0,12.9,8.6,29.6,15.8,41.3c9.6,15.7,22.9,32.6,37.5,47.5l4.7,4.8l0.1,0.1
		c14.9,14.6,31.8,28,47.4,37.6c11.7,7.2,28.3,15.8,41.1,15.8c13.8,0,28.4-9.9,34-14.1c4.4-3.3,18.8-14.9,18.8-24.7
		c0-4-2.6-8.4-8.5-14.1c-5.2-5.1-11.7-9.9-16.2-13.1c-6.1-4.3-12.4-8.2-17.9-11.1c-8.9-4.7-12.7-5.2-14.8-5.2
		c-4.2,0-7.9,2.2-10.9,6.6c-2,2.9-3.5,6.3-4.9,9.6c-1,2.2-2.5,5.8-3.6,7.2c-2-0.5-6.9-2.6-15.1-8.2c-7.7-5.3-16-12-22.3-18.2
		c-6.1-6.3-12.9-14.7-18.1-22.4c-5.6-8.3-7.7-13.2-8.2-15.2c1.4-1.1,4.9-2.6,7.2-3.6c3.3-1.4,6.8-2.9,9.6-4.9
		c4.3-3,6.5-6.7,6.5-10.9c0-2.1-0.5-5.9-5.2-14.8c-2.9-5.5-6.8-11.9-11.1-18c-3.2-4.5-8-11.1-13-16.3C47.1,2.6,42.7,0,38.7,0L38.7,0
		z"/>
	<path class="st0" d="M161.4,90.2c-2.4,0-4.4-1.9-4.5-4.4C156.4,63,138,45.1,115.2,45.1c-3.7,0-7.4,0.5-11,1.5
		c-2.4,0.6-4.9-0.8-5.5-3.1c-0.7-2.4,0.8-4.9,3.1-5.5c4.4-1.2,8.9-1.8,13.4-1.8c13.3,0,25.9,5.1,35.4,14.4
		c9.5,9.3,14.9,21.7,15.3,35c0.1,2.5-1.9,4.5-4.4,4.6C161.5,90.2,161.5,90.2,161.4,90.2z"/>
	<path class="st0" d="M195.1,82.4c-2.3,0-4.2-1.7-4.5-4c-3.5-35.4-33.1-62.1-68.8-62.1c-6.4,0-12.9,0.9-19.1,2.7
		c-2.4,0.7-4.9-0.7-5.5-3.1s0.7-4.9,3.1-5.5c7-2,14.3-3,21.6-3c19.5,0,38.1,7.2,52.5,20.3c14.3,13,23.2,30.7,25.2,49.9
		c0.2,2.5-1.6,4.7-4,4.9C195.4,82.4,195.3,82.4,195.1,82.4z"/>
	<path class="st0" d="M136.6,96c-2,0-3.8-1.4-4.3-3.4C129.4,81,119.1,73,107.2,73c-0.8,0-1.6,0-2.4,0.1c-2.5,0.2-4.7-1.6-4.9-4.1
		c-0.2-2.5,1.6-4.7,4.1-4.9c1.1-0.1,2.2-0.2,3.2-0.2c16,0,29.9,10.8,33.7,26.4c0.6,2.4-0.9,4.8-3.3,5.4
		C137.3,95.9,136.9,96,136.6,96z"/>
</g>
</svg>
