<?xml version="1.0" encoding="utf-8"?>
<!-- Generator: Adobe Illustrator 21.0.0, SVG Export Plug-In . SVG Version: 6.00 Build 0)  -->
<svg version="1.1" id="图层_1" xmlns="http://www.w3.org/2000/svg" xmlns:xlink="http://www.w3.org/1999/xlink" x="0px" y="0px"
	 viewBox="0 0 200 200" style="enable-background:new 0 0 200 200;" xml:space="preserve">
<style type="text/css">
	.st0{fill:#999999;}
</style>
<g>
	<path class="st0" d="M101.5,35c20.1,0,35.8,15.3,35.8,34.7v37.3l-16.4,23.8c-1.5,2.1-1.9,4.8-1.3,7.3s2.4,4.6,4.7,5.8l53.5,26.8
		v19.7H23.3v-19.7l55.9-26.8c2.4-1.1,4.2-3.3,4.8-5.9c0.7-2.6,0.2-5.3-1.4-7.5L65.7,107V69.8C65.7,50.3,81.5,35,101.5,35 M101.5,26
		c-25.1,0-44.8,19.2-44.8,43.7v38.2c0,1.3,0.4,2.6,1.2,3.6l17.4,24.4l-57.5,27.5c-2.2,1-3.5,3.2-3.5,5.6v24.2c0,3.4,2.8,6.2,6.2,6.2
		h160.1c3.4,0,6.2-2.8,6.2-6.2v-24.2c0-2.4-1.3-4.5-3.4-5.6L128.3,136l16.9-24.5c0.7-1,1.1-2.3,1.1-3.5V69.8
		C146.3,45.2,126.6,26,101.5,26L101.5,26z"/>
	<path class="st0" d="M35.9,61.6c-0.1,1.2-0.1,2.4-0.1,3.6v50c-6.8-2.1-11.5-8.4-11.5-15.7V77.3C24.4,70,29.1,63.7,35.9,61.6
		 M167.5,61.7c6.7,2.2,11.4,8.5,11.4,15.7v22.2c0,7.2-4.6,13.4-11.3,15.6V65.2C167.6,64,167.6,62.8,167.5,61.7 M101.7,0
		C68.8,0,42.2,22.1,36.2,52.3c-11.8,2.2-20.8,12.6-20.8,25v22.2c0,12,8.3,22.1,19.5,24.8l9.9,0v-59c0-29.6,26.4-55.3,56.9-55.3
		c30.5,0,56.9,25.7,56.9,55.3v59l9.9,0c11.1-2.7,19.4-12.8,19.4-24.7V77.3c0-12.4-8.9-22.7-20.6-25C161.3,22.1,134.7,0,101.7,0
		L101.7,0z"/>
</g>
</svg>
