<?xml version="1.0" encoding="utf-8"?>
<!-- Generator: Adobe Illustrator 21.0.0, SVG Export Plug-In . SVG Version: 6.00 Build 0)  -->
<svg version="1.1" id="图层_1" xmlns="http://www.w3.org/2000/svg" xmlns:xlink="http://www.w3.org/1999/xlink" x="0px" y="0px"
	 viewBox="0 0 200 200" style="enable-background:new 0 0 200 200;" xml:space="preserve">
<style type="text/css">
	.st0{fill:#999999;}
</style>
<g>
	<path class="st0" d="M196.8,19.7L180.7,3.6c-3.7-3.7-9.6-3.7-13.3,0l-16.8,16.8l29.4,29.4l16.8-16.8
		C200.4,29.3,200.4,23.4,196.8,19.7L196.8,19.7z"/>
	<polygon class="st0" points="145.5,25.5 54.4,119.5 47,153.4 80.9,145.9 174.4,54.3 	"/>
	<polygon class="st0" points="170.5,91.3 170.5,190.1 9,190.1 9,29.9 95.6,29.9 104.3,21.1 104.3,20.9 0,20.9 0,199.1 179.5,199.1 
		179.5,82.3 179.5,82.3 	"/>
</g>
</svg>
