<?xml version="1.0" encoding="utf-8"?>
<!-- Generator: Adobe Illustrator 21.0.0, SVG Export Plug-In . SVG Version: 6.00 Build 0)  -->
<svg version="1.1" id="图层_1" xmlns="http://www.w3.org/2000/svg" xmlns:xlink="http://www.w3.org/1999/xlink" x="0px" y="0px"
	 viewBox="0 0 840 200" style="enable-background:new 0 0 840 200;" xml:space="preserve">
<style type="text/css">
	.st0{fill:#0AABB6;}
	.st1{fill:#335872;}
	.st2{fill:#FF653D;}
	.st3{fill:#F7AC16;}
	.st4{fill:#EED526;}
	.st5{fill:#ADD41C;}
	.st6{fill:#34B66D;}
	.st7{fill:none;stroke:#0AABB6;stroke-miterlimit:10;}
	.st8{fill:none;stroke:#335872;stroke-miterlimit:10;}
	.st9{fill:none;stroke:#FF653D;stroke-miterlimit:10;}
	.st10{fill:none;stroke:#F7AC16;stroke-miterlimit:10;}
	.st11{fill:none;stroke:#EED526;stroke-miterlimit:10;}
	.st12{fill:none;stroke:#ADD41C;stroke-miterlimit:10;}
	.st13{fill:none;stroke:#34B66D;stroke-miterlimit:10;}
	.st14{fill:none;stroke:#000000;stroke-width:9;stroke-linecap:round;stroke-linejoin:round;stroke-miterlimit:10;}
	.st15{fill:none;stroke:#000000;stroke-width:9;stroke-miterlimit:10;}
	.st16{fill:none;stroke:#000000;stroke-width:9;stroke-linejoin:round;stroke-miterlimit:10;}
	.st17{fill:#4B4B4B;}
	.st18{fill:#999999;}
	.st19{clip-path:url(#SVGID_2_);}
	.st20{fill:#272636;}
	.st21{fill:#333333;}
	.st22{fill:#BBBBBB;}
	.st23{fill:none;stroke:#272636;stroke-width:9;stroke-miterlimit:10;}
	.st24{fill:none;stroke:#272636;stroke-width:9;stroke-linecap:round;stroke-linejoin:round;stroke-miterlimit:10;}
</style>
<path class="st21" d="M837.6,42.1c-2.7-4.3-7.5-7.2-12.9-7.2H655.3c-5.5,0-10.2,2.9-12.9,7.2c-1.5,2.4-2.4,5.1-2.4,8.1v99.6
	c0,3.7,1.3,7.1,3.5,9.8c2.8,3.4,7,5.5,11.8,5.5h169.4c4.7,0,9-2.2,11.8-5.5c2.2-2.7,3.5-6.1,3.5-9.8V50.2
	C840,47.2,839.1,44.4,837.6,42.1z M657.5,43.9h165v0l-55.1,51.3l-6.6,6.2L740,120.8l-20.8-19.4l-6.6-6.2L657.5,43.9L657.5,43.9z
	 M660.5,156.1l52.1-48.6l27.4,25.6l27.4-25.6l52.1,48.6H660.5z M649,149.8V50.2c0-0.6,0.1-1.2,0.2-1.7l56.7,52.9l-55.8,52
	C649.4,152.4,649,151.1,649,149.8z M774,101.4l56.7-52.9c0.2,0.5,0.2,1.1,0.2,1.7v99.6c0,1.3-0.4,2.6-1.1,3.6L774,101.4z"/>
<g>
	<path class="st21" d="M38,9c0,0,2.1,0.1,7.6,5.8c4.6,4.8,9.2,10.9,12.1,15.2c4,5.8,7.8,11.8,10.5,17c4,7.6,4.2,10.2,4.2,10.6
		c0,0.5,0,1.7-2.7,3.5c-2.1,1.5-5.2,2.8-8.1,4.1c0,0,0,0,0,0c-3.8,1.6-7,3.1-9.2,4.8c-2.7,2.2-3.9,5.7-3.1,9.1
		c1,4.2,4.3,10.5,9.5,18.2c5.5,8.1,12.7,16.9,19.1,23.6c0.1,0.1,0.1,0.1,0.2,0.2c6.6,6.5,15.4,13.7,23.5,19.2
		c7.7,5.2,13.9,8.5,18.1,9.5c0.7,0.2,1.4,0.2,2.1,0.2c2.7,0,5.3-1.2,7-3.4c1.7-2.1,3.2-5.4,4.8-9.2c1.3-2.9,2.6-6,4-8.1
		c1.8-2.7,3.1-2.7,3.5-2.7c0.4,0,3,0.2,10.6,4.2c5.2,2.7,11.2,6.5,17,10.5c4.3,3,10.4,7.5,15.2,12.2c5.7,5.6,5.8,7.6,5.8,7.7
		c0,3-5.7,10.4-15.2,17.6c-3.8,2.9-17.3,12.3-28.6,12.3c-8.4,0-21.3-5.1-36.4-14.5c-15-9.3-31.3-22.2-45.8-36.3c0,0,0,0,0,0
		l-4.7-4.7C44.8,121,32,104.6,22.7,89.5C13.4,74.4,8.3,61.4,8.3,53c0-11.4,9.4-24.9,12.3-28.8C27.6,14.8,35.1,9,38,9 M38,0
		c-9.8,0-21.3,14.4-24.6,18.8C9.1,24.5-0.7,39.1-0.7,53c0,12.9,8.6,29.6,15.8,41.3c9.6,15.7,22.9,32.6,37.5,47.5l4.7,4.8l0.1,0.1
		c14.9,14.6,31.8,28,47.4,37.6c11.7,7.2,28.3,15.8,41.1,15.8c13.8,0,28.4-9.9,34-14.1c4.4-3.3,18.8-14.9,18.8-24.7
		c0-4-2.6-8.4-8.5-14.1c-5.2-5.1-11.7-9.9-16.2-13.1c-6.1-4.3-12.4-8.2-17.9-11.1c-8.9-4.7-12.7-5.2-14.8-5.2
		c-4.2,0-7.9,2.2-10.9,6.6c-2,2.9-3.5,6.3-4.9,9.6c-1,2.2-2.5,5.8-3.6,7.2c-2-0.5-6.9-2.6-15.1-8.2c-7.7-5.3-16-12-22.3-18.2
		c-6.1-6.3-12.9-14.7-18.1-22.4c-5.6-8.3-7.7-13.2-8.2-15.2c1.4-1.1,4.9-2.6,7.2-3.6c3.3-1.4,6.8-2.9,9.6-4.9
		c4.3-3,6.5-6.7,6.5-10.9c0-2.1-0.5-5.9-5.2-14.8c-2.9-5.5-6.8-11.9-11.1-18c-3.2-4.5-8-11.1-13-16.3C46.4,2.6,42,0,38,0L38,0z"/>
	<path class="st21" d="M160.7,90.2c-2.4,0-4.4-1.9-4.5-4.4c-0.6-22.8-18.9-40.7-41.7-40.7c-3.7,0-7.4,0.5-11,1.5
		c-2.4,0.6-4.9-0.8-5.5-3.1c-0.7-2.4,0.8-4.9,3.1-5.5c4.4-1.2,8.9-1.8,13.4-1.8c13.3,0,25.9,5.1,35.4,14.4
		c9.5,9.3,14.9,21.7,15.3,35c0.1,2.5-1.9,4.5-4.4,4.6C160.8,90.2,160.8,90.2,160.7,90.2z"/>
	<path class="st21" d="M194.4,82.4c-2.3,0-4.2-1.7-4.5-4c-3.5-35.4-33.1-62.1-68.8-62.1c-6.4,0-12.9,0.9-19.1,2.7
		c-2.4,0.7-4.9-0.7-5.5-3.1s0.7-4.9,3.1-5.5c7-2,14.3-3,21.6-3c19.5,0,38.1,7.2,52.5,20.3c14.3,13,23.2,30.7,25.2,49.9
		c0.2,2.5-1.6,4.7-4,4.9C194.7,82.4,194.6,82.4,194.4,82.4z"/>
	<path class="st21" d="M135.9,96c-2,0-3.8-1.4-4.3-3.4C128.7,81,118.4,73,106.5,73c-0.8,0-1.6,0-2.4,0.1c-2.5,0.2-4.7-1.6-4.9-4.1
		c-0.2-2.5,1.6-4.7,4.1-4.9c1.1-0.1,2.2-0.2,3.2-0.2c16,0,29.9,10.8,33.7,26.4c0.6,2.4-0.9,4.8-3.3,5.4
		C136.6,95.9,136.2,96,135.9,96z"/>
</g>
<path class="st21" d="M310.3,9c30.4,0,55.1,24.5,55.1,54.6v18.2l0,2l0.8,1.8c0.2,0.4,14.9,32.6,20.2,63.1c-1.9-2-3.7-4.2-5.4-6.6
	l-12.5-18.5l-3.8,22c-1.9,10.6-6.7,20.4-14.1,28.2l-8.6,9.1l11.4,5.2c1.6,0.7,3.6,1.8,5.5,3h-97c1.9-1.3,3.9-2.3,5.5-3l11.4-5.2
	l-8.6-9.1c-7.3-7.8-12.2-17.5-14.1-28.2l-3.8-21.9L239.8,142c-1.7,2.5-3.6,4.8-5.6,6.8c5.3-30.5,20-62.9,20.2-63.3l0.8-1.8v-2V63.6
	C255.2,33.5,279.9,9,310.3,9 M310.3,0c-35.4,0-64.1,28.4-64.1,63.6v18.2c0,0-22.9,49.7-22.9,86.4c0,0,14.3-7,23.9-21.1
	c2.2,12.6,8,23.9,16.4,32.8c-9.1,4.2-17.3,10.7-17.3,20.2h128.1c0-9.5-8.2-16-17.3-20.2c8.4-8.9,14.2-20.2,16.4-32.8
	c9.5,14.1,23.6,21.1,23.7,21.1c0,0,0,0,0,0c0-36.7-22.9-86.4-22.9-86.4V63.6C374.4,28.5,345.7,0,310.3,0L310.3,0z"/>
<g>
	<path class="st21" d="M530.3,68.8c4.9,0,8.2-3.3,8.2-8.2c0-5-3.3-8.2-8.2-8.2c-4.9,0-9.9,3.2-9.9,8.2
		C520.4,65.5,525.3,68.8,530.3,68.8z"/>
	<path class="st21" d="M484.3,52.4c-4.9,0-9.9,3.2-9.9,8.2c0,4.9,5,8.2,9.9,8.2c4.9,0,8.2-3.3,8.2-8.2
		C492.5,55.6,489.2,52.4,484.3,52.4z"/>
	<path class="st21" d="M578.7,67.7c-7-28.9-38.1-50.5-73-50.5c-40.2,0-72.9,28.3-72.9,63.1c0,17.9,8.6,34.1,25,47l-4.9,14.7
		c-0.9,2.8-0.1,5.9,2.2,7.8c1.3,1.1,3,1.8,4.8,1.8c1.1,0,2.2-0.3,3.3-0.8l20.7-10.4l1.3,0.3c7,1.4,13,2.7,20.7,2.7
		c2.7,0,4.7-0.2,6.1-0.4c9.9,20,32.6,33.2,57.9,33.2c6.3,0,12.5-1.3,18.7-2.8l15.5,8.5c1.1,0.6,2.3,0.9,3.5,0.9
		c1.7,0,3.3-0.6,4.6-1.6c2.3-1.9,3.3-4.9,2.4-7.8l-3.5-11.7c14.1-11.9,21.9-26.2,21.9-40.4v-0.2C632.7,94.5,608.8,71.6,578.7,67.7z
		 M486.7,132.3l-4.2-0.8L462,141.7l5.9-17.6l-2.5-1.9c-15.7-11.5-24-26-24-42c0-30.1,28.9-54.5,64.3-54.5c30,0,56.7,17.5,63.9,41.3
		c-34.8,0.1-63,24.3-63,54c0,4.7,0.6,9.3,1.9,13.6c-0.9,0.1-1.9,0.1-2.8,0.1C498.9,134.8,493.3,133.7,486.7,132.3z M624.1,121.3
		c0,12.3-7.4,24.9-20.9,35.5c-1.4,1.1-2,2.9-1.5,4.6l3.4,11.3l-14.2-7.7c-0.6-0.3-1.3-0.5-2.1-0.5c-0.3,0-0.7,0-1,0.1
		c-6.2,1.6-12.3,3-18.2,3c-23.3,0-44.1-12.7-51.6-31.5c0,0,0,0,0-0.1c-1.9-4.6-2.9-9.6-2.9-14.9c0-25,24.5-45.4,54.5-45.4
		c29.5,0,54.4,20.8,54.4,45.4V121.3z"/>
	<path class="st21" d="M551.6,100c-3.3,0-6.6,3.3-6.6,6.6c0,3.3,3.3,6.6,6.6,6.6c4.9,0,8.2-3.3,8.2-6.6
		C559.8,103.3,556.5,100,551.6,100z"/>
	<path class="st21" d="M587.7,100c-3.2,0-6.5,3.3-6.5,6.6c0,3.3,3.3,6.6,6.5,6.6c4.9,0,8.2-3.3,8.2-6.6
		C595.9,103.3,592.6,100,587.7,100z"/>
</g>
</svg>
