<svg id="图层_1" data-name="图层 1" xmlns="http://www.w3.org/2000/svg" viewBox="0 0 260 68"><defs><style>.cls-1{fill:#fff;}.cls-2{fill:#6ccac9;}.cls-3{fill:#222;}</style></defs><title>tubiao</title><rect class="cls-1" x="100" width="160" height="68"/><rect class="cls-2" width="100" height="68"/><path class="cls-1" d="M43.87316,38.56038a.8305.8305,0,0,1-.37631-.09027l-8.26918-4.18991a.83418.83418,0,1,1,.73671-1.49676l8.28643,4.19867a.8342.8342,0,0,1-.37765,1.57826Z"/><path class="cls-1" d="M55.90563,38.56038a.8342.8342,0,0,1-.37765-1.57826l8.28643-4.19867a.83424.83424,0,1,1,.73154,1.49935l-8.264,4.18732A.83035.83035,0,0,1,55.90563,38.56038Z"/><path class="cls-1" d="M68.00853,23.20688,50.0001,14.32334,31.99147,23.20689l-1.66814.82288V43.70655l19.67678,9.9701,19.67657-9.9701V24.02978ZM50.00009,16.18341l18.00723,8.88295L50.0001,34.1906,31.99268,25.06635ZM31.99147,26.9358,49.166,35.63805V51.384L31.99147,42.68173ZM50.00008,51.80658h0Zm18.00846-9.12485L50.83417,51.384V35.638l17.17436-8.70224Z"/><path class="cls-3" d="M132.23438,34.53125q1.1792-.32812,2.28125-.64844V30.5H132.4375V29.42188h2.07813V26.375h1.20313v3.04688h1.85938V30.5h-1.85937v3.01563q.94482-.29663,1.82813-.59375,0,.75.03125,1.21875-.90674.28931-1.85937.60156V39.6875q0,1.6875-1.51562,1.71875-.62549.01538-1.54687,0-.09375-.65625-.20312-1.32812.92139.09375,1.39063.09375.67236,0,.67188-.76562V35.13281q-1.03857.33618-2.125.69531Zm5.9375-7.46875h8.64063q-.07764,1.59375-.14062,2.40625-.10986,1.938-2.28125,1.9375-.90674,0-2.64062-.03125-.10986-.59326-.25-1.25,1.71826.15674,2.75.15625,1.17188,0,1.25-.95312.04688-.49951.0625-1.17187h-6.17187V32.625h7.51563v1.07813a11.063,11.063,0,0,1-2.53906,4.71875,11.16518,11.16518,0,0,0,3.44531,1.85938q-.54639.687-.90625,1.15625a15.652,15.652,0,0,1-3.42969-2.1875,24.39867,24.39867,0,0,1-3.36719,2.3125q-.28125-.46875-.6875-1.0625a20.24857,20.24857,0,0,0,3.17969-2.09375,10.34521,10.34521,0,0,1-2.26562-4.6875h-.94531v7.95313h-1.21875Zm7.46875,6.65625H141.4375a8.347,8.347,0,0,0,2.03906,3.89063A8.91244,8.91244,0,0,0,145.64063,33.71875Z"/><path class="cls-3" d="M148.17188,34.10938a27.409,27.409,0,0,0,3.29688-7.73437l1.21875.375q-.5625,1.79736-1.1875,3.35938V41.65625h-1.17187v-8.9375a23.90767,23.90767,0,0,1-1.625,2.75Q148.40576,34.625,148.17188,34.10938Zm10.625-7.76562-.21875.39063a11.464,11.464,0,0,0,5.21875,4.9375q-.40576.46875-.85937,1.09375a13.39419,13.39419,0,0,1-5-5,16.59373,16.59373,0,0,1-4.9375,5.25,6.94049,6.94049,0,0,0-.8125-.98437,13.675,13.675,0,0,0,5.20313-5.6875Zm-2.51562,6.10938v2.21875A9.498,9.498,0,0,1,153.6875,41.75a8.14578,8.14578,0,0,0-1.04687-.875,7.85313,7.85313,0,0,0,2.42188-6.09375V32.45313Zm3.29688,0h1.21875v9.14063h-1.21875Z"/><path class="cls-3" d="M164.15625,36a20.52951,20.52951,0,0,0,2.14844-5.25h-1.96094V29.71875h2.17188V26.25h1.09375v3.46875h2.03125V30.75h-2.03125v2.0625l.60938-.5q.89063.95361,1.65625,1.92188l-.85937.71875a21.99862,21.99862,0,0,0-1.40625-1.83594v8.46094h-1.09375V33.07031A15.53163,15.53163,0,0,1,164.6875,37.375,14.27938,14.27938,0,0,0,164.15625,36Zm4.96875,1.0625h4.52344a10.41739,10.41739,0,0,0,.13281-1.40625H171.375v.4375H170.25V30.4375h8.35938v5.65625h-1.125v-.4375h-2.625a12.68888,12.68888,0,0,1-.14062,1.40625H179.625v1h-4.3125a7.21437,7.21437,0,0,0,4.48438,2.3125,9.73077,9.73077,0,0,0-.76562,1.17188,8.63611,8.63611,0,0,1-4.71094-3.1875q-1.11768,2.24194-5.13281,3.28125a9.99466,9.99466,0,0,0-.60937-1.07812q3.67969-.77344,4.70313-2.5H169.125Zm6.65625-10.79687H176.875v1.5h2.6875v1H176.875v1.26563h-1.09375V28.76563H173v1.26563h-1.09375V28.76563H169.4375v-1h2.46875V26.25H173v1.51563h2.78125Zm1.70313,5.14063H171.375v1.17188h6.10938ZM171.375,34.6875h6.10938V33.51563H171.375Z"/><path class="cls-3" d="M180.34375,39.78125h7V37.67188h-5.57812V36.59375h5.57813V35.375h1.21875v1.21875h5.71875v1.07813H188.5625v2.10938h7.07813v1.07813H180.34375Zm.03125-9.01562h2.375q.01611-.33545.01563-2.60937h-1.73437V27.125h8.15625v1.03125h-1.70312v2.60938h2.21875v1.03125h-2.21875v3.35938h-1.14062V31.79688h-2.52344a5.52473,5.52473,0,0,1-2.22656,3.89063q-.40576-.45264-.85937-.90625a4.33575,4.33575,0,0,0,1.92969-2.98437H180.375Zm3.51563,0h2.45313V28.15625h-2.4375Q183.90625,30.04736,183.89063,30.76563Zm6.45313-3.39062h1.125v5.40625h-1.125Zm4.29688-.875v7.1875A1.48782,1.48782,0,0,1,193,35.375q-.9375.03149-2.17187,0-.063-.59326-.1875-1.23437,1.3125.07837,1.96875.07813.89063,0,.89063-.98437V26.5Z"/></svg>