<svg id="图层_1" data-name="图层 1" xmlns="http://www.w3.org/2000/svg" viewBox="0 0 260 68"><defs><style>.cls-1{fill:#fff;}.cls-2{fill:#d16b3b;}.cls-3{fill:#222;}</style></defs><title>tubiao</title><rect class="cls-1" x="99.99841" width="160" height="68"/><rect class="cls-2" width="100" height="68"/><path class="cls-3" d="M133.3125,29.60156h6.01563V26.19531h1.34375v3.40625H146.75v7.125h-1.28125v-.84375h-4.79687v5.8125h-1.34375v-5.8125h-4.73437v.84375H133.3125Zm1.28125,5.125h4.73438V30.75781h-4.73437Zm10.875-3.96875h-4.79687v3.96875h4.79688Z"/><path class="cls-3" d="M148.1875,36.00781a16.8429,16.8429,0,0,0,2.375-5.59375h-2.26562v-1.0625h2.375v-3.0625h1.09375v3.0625h2.125v1.0625h-2.125v2.76563l.67188-.70312q1.00049.85986,1.76563,1.65625l-.82812.85938q-.75-.85107-1.60937-1.71875v8.25h-1.09375V33.0625a15.5631,15.5631,0,0,1-1.96875,4.32031Q148.48486,36.71118,148.1875,36.00781Zm7.14063-1.64062,1.17188.46875q-1.28174,2.85938-2.54687,5.07813a9.00777,9.00777,0,0,0-1.14062-.54687A37.024,37.024,0,0,0,155.32813,34.36719ZM153.875,31.78906h9.75v1.09375h-4.3125v6.53125q0,1.95264-1.79687,1.95313-.84375.01538-2.07812-.01562-.07764-.5625-.21875-1.29687a17.28619,17.28619,0,0,0,1.96875.125q.9375,0,.9375-1.15625V32.88281h-4.25Zm.71875-4.57812h8.3125v1.09375h-8.3125Zm5.75,7.6875,1.10938-.53125q1.48389,2.844,2.46875,4.98438l-1.25.54688Q161.65674,37.47705,160.34375,34.89844Z"/><path class="cls-3" d="M164.375,35.28906h2.375q.34424-.59326.67188-1.21875l1.125.35938q-.25049.438-.5.85938H171.875v1.01563a7.39375,7.39375,0,0,1-1.79687,2.6875q.85986.40649,1.75.8125l-.6875,1.07813q-.96826-.54712-2.01562-1.09375a13.86711,13.86711,0,0,1-4.45312,2q-.25049-.50024-.53125-1.09375A12.70746,12.70746,0,0,0,168,39.21094q-1.34326-.687-2.8125-1.40625.49951-.71851.96875-1.48437H164.375Zm.17188-5.375h3.59375v-3.5h1.15625v3.5h3v1.03125h-3v.95313l.46875-.53125q1.45313,1.06274,2.4375,1.875l-.75.875q-.85986-.81226-2.15625-1.82812v1.78125h-1.15625v-2.1875a15.595,15.595,0,0,1-3.3125,2.60938q-.29736-.45264-.67187-.95312a17.31794,17.31794,0,0,0,3.60938-2.59375h-3.21875Zm.40625-2.42187.89063-.60937q.70313.85986,1.45313,1.84375l-.96875.6875Q165.64111,28.39893,164.95313,27.49219Zm1.76563,9.95313q1.10889.50024,2.28125,1.04688a6.68473,6.68473,0,0,0,1.6875-2.17187h-3.25Q167.07861,36.89893,166.71875,37.44531Zm4.875-10.64062.96875.64063q-.85986,1.125-1.71875,2.07813-.35889-.312-.84375-.65625Q170.813,27.91431,171.59375,26.80469Zm2.84375-.53125,1.25.1875a26.95021,26.95021,0,0,1-.76562,2.82813h4.78125v1.0625h-.98437a17.13013,17.13013,0,0,1-2,7.29688,10.01649,10.01649,0,0,0,3.21875,2.8125q-.49951.687-.84375,1.23438a12.09976,12.09976,0,0,1-3.17187-2.9375A14.96685,14.96685,0,0,1,172.5,41.85156a8.97272,8.97272,0,0,0-.89062-.98437,13.79784,13.79784,0,0,0,3.54688-3.26562,13.86475,13.86475,0,0,1-1.67187-5.04687,11.94407,11.94407,0,0,1-.6875,1.07813,12.27406,12.27406,0,0,0-.78125-1A15.29169,15.29169,0,0,0,174.4375,26.27344Zm3.03125,4.07813h-2.92187c-.05176.13574-.10937.26563-.17187.39063a14.3197,14.3197,0,0,0,1.5625,5.67188A14.99,14.99,0,0,0,177.46875,30.35156Z"/><path class="cls-3" d="M180.25,34.61719q1.10889-.30469,2.15625-.61719V30.42969H180.4375v-1.125h1.96875V26.32031h1.15625v2.98438h1.70313v1.125H183.5625v3.21094q.74268-.23437,1.45313-.47656a9.82061,9.82061,0,0,0,.09375,1.21875q-.8042.25781-1.54687.50781v4.72656q0,1.76514-1.54687,1.79688-.48486.01538-1.4375-.01562-.063-.62549-.1875-1.29687a13.10057,13.10057,0,0,0,1.3125.09375q.70313,0,.70313-.79687v-4.125q-1.0708.35962-2,.6875Zm7,1.57813h3.21875V34.21094h-3.64062q-.17139,4.80469-2.21875,7.42188-.375-.48486-.84375-.98437,1.95264-2.406,1.95313-7.39062V27.16406h9.21875v4.53125h-1.125v-.48437h-6.96875v1.9375h3.625V31.50781h1.125v1.64063h4.125v1.0625h-4.125v1.98438h3.25v5.28125h-1.125v-.90625H188.375v.90625H187.25Zm6.5625-8h-6.96875v1.98438h6.96875Zm-.09375,9.03125H188.375v2.32813h5.34375Z"/><path class="cls-3" d="M196.125,32.61719a19.346,19.346,0,0,0,5.5-6.21875l1.10938.60938a21.69992,21.69992,0,0,1-5.70312,6.67188A7.50658,7.50658,0,0,0,196.125,32.61719Zm2.125.51563h10.39063q-.07764,2.65649-.23437,5.1875-.1875,2.92163-2.76562,2.90625-1.26562.01538-2.67187-.07812-.09375-.65625-.21875-1.32812a20.76921,20.76921,0,0,0,2.6875.1875q1.563.03076,1.71875-1.82812.12451-1.6875.1875-3.89062h-4.80469a10.03672,10.03672,0,0,1-1.08594,4.20313,7.70292,7.70292,0,0,1-3.98437,3.23438,13.36854,13.36854,0,0,0-.89062-1.04687,7.1121,7.1121,0,0,0,3.73438-2.8125,7.913,7.913,0,0,0,.94531-3.57812H198.25Zm6.46875-6.5,1.125-.48437a11.76214,11.76214,0,0,0,6.03125,6.26563,10.48764,10.48764,0,0,0-1.01562,1.1875A14.03567,14.03567,0,0,1,204.71875,26.63281Z"/><path class="cls-3" d="M212.21875,36.05469a17.67622,17.67622,0,0,0,2.45313-5.48437H212.4375V29.49219h2.26563V26.38281h1.14063v3.10938H218v1.07813h-2.15625v1.78125l.57813-.45312a26.755,26.755,0,0,1,2.0625,2.67188l-.96875.71875q-.73389-1.15576-1.67187-2.40625v8.6875h-1.14062V33.53906a14.52485,14.52485,0,0,1-1.9375,3.90625Q212.57813,36.89893,212.21875,36.05469Zm6.71875-8.51562a55.13561,55.13561,0,0,0,7.71875-.67187l.42188,1.125a67.618,67.618,0,0,1-6.9375.64063v3.48438h7.625v1.14063h-2.9375v8.3125H223.625v-8.3125h-3.48437v.59375q0,5.07861-2.57812,7.8125a10.49239,10.49239,0,0,0-.8125-1.03125q2.187-2.34375,2.1875-6.79687Z"/><path class="cls-1" d="M45.41179,15.84385a.30884.30884,0,0,1,.22229.09217L68.06495,38.36561a.31292.31292,0,0,1-.00119.44281A16.17383,16.17383,0,1,1,45.18984,15.93585a.30815.30815,0,0,1,.222-.092m0-1.668a1.97568,1.97568,0,0,0-1.40153.5807A17.84183,17.84183,0,1,0,69.24316,39.98794a1.981,1.981,0,0,0,0-2.80305L46.81349,14.75653a1.97635,1.97635,0,0,0-1.4017-.5807Z"/><path class="cls-1" d="M38.09985,39.63251a.326.326,0,0,1,.22756.09217l11.894,11.89369a.31485.31485,0,0,1-.22162.53778H32.15818a.31458.31458,0,0,1-.28173-.45491L37.8227,39.80891a.31984.31984,0,0,1,.2279-.17249.314.314,0,0,1,.04925-.00391m0-1.668a1.97246,1.97246,0,0,0-1.768,1.09627l-5.94727,11.8945a1.98262,1.98262,0,0,0,1.7736,2.86886H49.99982a1.9828,1.9828,0,0,0,1.4017-3.3846L39.50681,38.54519a1.99563,1.99563,0,0,0-1.407-.58066Z"/><rect class="cls-1" x="57.01731" y="23.6494" width="5.01578" height="1.66768" transform="translate(0.12227 49.26165) rotate(-45)"/><path class="cls-1" d="M63.89332,17.83011a2.30873,2.30873,0,1,1-2.30887,2.30875,2.31137,2.31137,0,0,1,2.30887-2.30875m0-1.668A3.97674,3.97674,0,1,0,67.87,20.13886a3.97686,3.97686,0,0,0-3.97668-3.97676Z"/></svg>