<svg id="图层_1" data-name="图层 1" xmlns="http://www.w3.org/2000/svg" viewBox="0 0 260 68"><defs><style>.cls-1{fill:#fff;}.cls-2{fill:#ff9640;}.cls-3{fill:#222;}</style></defs><title>tubiao</title><rect class="cls-1" x="100" width="160" height="68"/><rect class="cls-2" width="100" height="68"/><path class="cls-3" d="M141.1875,26.47656l-.3125.42188a15.68073,15.68073,0,0,0,6.92188,5q-.34424.501-.85937,1.34375a20.4372,20.4372,0,0,1-6.875-5.375,22.83071,22.83071,0,0,1-7.07812,5.75q-.40576-.59326-.90625-1.28125A18.18386,18.18386,0,0,0,139.5,26.47656Zm-8.26562,13.40625h2.10938v-6.0625h1.29688v6.0625h3.23438V31.14844h1.29688v3.45313H145.625v1.14063h-4.76562v4.14063h6.25v1.15625h-14.1875Z"/><path class="cls-3" d="M148.29688,39.50781h5.01563V26.60156h1.3125V39.50781h2.73438V26.60156h1.3125V39.50781h5.0625v1.15625h-15.4375Zm1.8125-9.84375q1.28174,3.01611,2.48438,6.40625l-1.28125.57813q-1.04736-3.2959-2.34375-6.48437Zm9.125,6.54688a62.92927,62.92927,0,0,0,2.625-6.40625l1.26563.5q-1.45312,3.73535-2.76562,6.42188Z"/><path class="cls-3" d="M164.45313,39.38281h6.84375V28.96094h-5.95312v-1.25h13.3125v1.25h-5.98437V39.38281h6.85938v1.21875H164.45313Z"/><path class="cls-3" d="M180.17188,34.10156a27.07777,27.07777,0,0,0,3.48438-7.73437l1.28125.375q-.60205,1.84424-1.28125,3.46094V41.67969H182.4375V32.75a23.344,23.344,0,0,1-1.67187,2.69531Q180.53125,34.85205,180.17188,34.10156Zm4.34375-1.4375a19.673,19.673,0,0,0,3.0625-6.34375l1.28125.23438q-.36768,1.2041-.82812,2.32813h7.70313v1.09375h-5.6875v2.73438h5.0625v1.09375h-5.0625v2.84375h5.26563v1.09375h-5.26562v3.9375h-1.21875V29.97656h-1.27344A23.19554,23.19554,0,0,1,185.5,33.55469Q185.062,33.13281,184.51563,32.66406Z"/><path class="cls-3" d="M197.5,27.44531h13.4375v1.21875H198.82813V39.57031H211.1875v1.1875H197.5Zm2.53125,2.9375.875-.82812q1.95264,1.60986,4.08594,3.53125a40.82172,40.82172,0,0,0,3.13281-3.84375l1.14063.76563q-1.64062,2.12549-3.32812,3.9375,1.94531,1.77393,4.03125,3.79688l-1.07812,1.09375Q206.99951,36.85986,205,34.92969a40.28914,40.28914,0,0,1-4.59375,4.03125,7.00585,7.00585,0,0,0-1-1.01562,31.8162,31.8162,0,0,0,4.66406-3.89844Q202.10889,32.19531,200.03125,30.38281Z"/><rect class="cls-1" x="44.33594" y="25.50437" width="3.77595" height="3.77612"/><rect class="cls-1" x="51.88804" y="25.50437" width="3.77604" height="3.77612"/><rect class="cls-1" x="44.33594" y="33.05573" width="3.77595" height="3.77641"/><rect class="cls-1" x="51.88804" y="33.05573" width="3.77604" height="3.77641"/><rect class="cls-1" x="36.78403" y="40.60848" width="3.77564" height="3.77583"/><rect class="cls-1" x="44.33594" y="40.60848" width="3.77595" height="3.77583"/><rect class="cls-1" x="51.88804" y="40.60848" width="3.77604" height="3.77583"/><rect class="cls-1" x="59.43976" y="40.60848" width="3.7762" height="3.77583"/><path class="cls-1" d="M53.776,15.84388a.22052.22052,0,0,1,.22026.22026V17.9519a1.668,1.668,0,0,0,1.668,1.668H59.44a.2208.2208,0,0,1,.22026.22081V34.94444a1.668,1.668,0,0,0,1.668,1.668H66.992a.22009.22009,0,0,1,.22009.21968V51.936a.22032.22032,0,0,1-.22009.22015H33.00814a.22047.22047,0,0,1-.22026-.22015V36.83214a.22023.22023,0,0,1,.22026-.21968H38.672a1.668,1.668,0,0,0,1.668-1.668V19.84073a.22062.22062,0,0,1,.21992-.22081H44.336a1.668,1.668,0,0,0,1.668-1.668V16.06414a.22037.22037,0,0,1,.22009-.22026H53.776m0-1.668H46.224A1.88787,1.88787,0,0,0,44.336,16.06414V17.9519H40.55987A1.88776,1.88776,0,0,0,38.672,19.84073V34.94444H33.00814a1.88745,1.88745,0,0,0-1.88823,1.8877V51.936a1.8887,1.8887,0,0,0,1.88823,1.88817H66.992A1.88856,1.88856,0,0,0,68.88009,51.936V36.83214a1.8873,1.8873,0,0,0-1.88806-1.8877H61.32819V19.84073A1.88773,1.88773,0,0,0,59.44,17.9519H55.66418V16.06414A1.888,1.888,0,0,0,53.776,14.17587Z"/><rect class="cls-1" x="45.30481" y="47.90034" width="9.39037" height="5.92379"/></svg>