<svg id="图层_1" data-name="图层 1" xmlns="http://www.w3.org/2000/svg" viewBox="0 0 260 68"><defs><style>.cls-1{fill:#fff;}.cls-2{fill:#e84368;}.cls-3{fill:#222;}</style></defs><title>tubiao</title><rect class="cls-1" x="100.00135" width="160" height="68"/><rect class="cls-2" width="100" height="68"/><path class="cls-3" d="M133.3125,29.65625h6.01563V26.25h1.34375v3.40625H146.75v7.125h-1.28125V35.9375h-4.79687V41.75h-1.34375V35.9375h-4.73437v.84375H133.3125Zm1.28125,5.125h4.73438V30.8125h-4.73437Zm10.875-3.96875h-4.79687v3.96875h4.79688Z"/><path class="cls-3" d="M148.1875,36.0625a16.8429,16.8429,0,0,0,2.375-5.59375h-2.26562v-1.0625h2.375v-3.0625h1.09375v3.0625h2.125v1.0625h-2.125v2.76563l.67188-.70312q1.00049.85986,1.76563,1.65625l-.82812.85938q-.75-.85107-1.60937-1.71875v8.25h-1.09375V33.11719a15.5631,15.5631,0,0,1-1.96875,4.32031Q148.48486,36.76587,148.1875,36.0625Zm7.14063-1.64062,1.17188.46875q-1.28174,2.85938-2.54687,5.07813a9.00777,9.00777,0,0,0-1.14062-.54687A37.024,37.024,0,0,0,155.32813,34.42188ZM153.875,31.84375h9.75V32.9375h-4.3125v6.53125q0,1.95264-1.79687,1.95313-.84375.01538-2.07812-.01562-.07764-.5625-.21875-1.29687a17.28619,17.28619,0,0,0,1.96875.125q.9375,0,.9375-1.15625V32.9375h-4.25Zm.71875-4.57812h8.3125v1.09375h-8.3125Zm5.75,7.6875,1.10938-.53125q1.48389,2.844,2.46875,4.98438l-1.25.54688Q161.65674,37.53174,160.34375,34.95313Z"/><path class="cls-3" d="M164.32813,40.57813q5.60156-1.99219,6.67969-5.73437h-6.36719v-1.1875h6.59375q.03076-.33545.03125-2.98437H165.5625v-1.1875h3.75q-1.34326-1.47656-2.29687-2.375l.90625-.8125q1.34326,1.20337,2.45313,2.29688l-1,.89063h3.72656q1.21143-1.71094,2.13281-3.20312L176.53125,27q-1.07812,1.37549-1.98437,2.48438H178.5v1.1875h-5.90625q0,2.29688-.02344,2.98438h6.85156v1.1875h-6.63281q1.83545,3.93018,6.91406,5.39063-.64014.65625-1.15625,1.26563a11.2079,11.2079,0,0,1-6.53906-5.64062q-1.27295,3.65625-6.77344,5.84375Q164.82861,41.17139,164.32813,40.57813Z"/><path class="cls-3" d="M180.20313,38.20313q.59326-.09375,1.1875-.19531V28.51563H180.375V27.42188h6.75v1.09375h-1.17187v8.6875q.71045-.13257,1.42188-.26562a9.18583,9.18583,0,0,0,.10938,1.09375q-.74268.14868-1.53125.30469v3.30469H184.8125V38.57031q-2.0083.40649-4.3125.88281Zm2.32813-7.40625h2.28125V28.51563h-2.28125Zm0,3.34375h2.28125V31.85938h-2.28125Zm2.28125,3.27344V35.20313h-2.28125V37.8125Q183.67969,37.61768,184.8125,37.41406ZM186.5,33.59375h3.60938q.063-1.14038.05469-2.82812H186.9375V29.60938h4.21875q.70313-1.125,1.84375-3.29687l1.21875.57813q-.96826,1.50806-1.80469,2.71875h2.61719v1.15625H191.375q0,1.69556-.05469,2.82813h4.24219V34.75h-4.08594a9.49023,9.49023,0,0,0,4.30469,5.54688,9.496,9.496,0,0,0-1,1.17188,11.26261,11.26261,0,0,1-3.90625-5.26562,9.29546,9.29546,0,0,1-3.79687,5.42188q-.48486-.60937-.875-1.01562a7.99061,7.99061,0,0,0,3.8125-5.85937H186.5Zm1.03125-6.64062.90625-.64062a20.33577,20.33577,0,0,1,1.76563,2.32813l-1.01562.70313A28.183,28.183,0,0,0,187.53125,26.95313Z"/><path class="cls-3" d="M205.1875,26.4375l-.3125.42188a15.68448,15.68448,0,0,0,6.92188,5q-.34424.50024-.85937,1.34375a20.4372,20.4372,0,0,1-6.875-5.375,22.83758,22.83758,0,0,1-7.07812,5.75q-.40576-.59326-.90625-1.28125A18.19188,18.19188,0,0,0,203.5,26.4375Zm-8.26562,13.40625h2.10938v-6.0625h1.29688v6.0625h3.23438V31.10938h1.29688V34.5625H209.625v1.14063h-4.76562v4.14063h6.25V41h-14.1875Z"/><path class="cls-3" d="M212.29688,39.46875h5.01563V26.5625h1.3125V39.46875h2.73438V26.5625h1.3125V39.46875h5.0625V40.625h-15.4375Zm1.8125-9.84375q1.28174,3.01611,2.48438,6.40625l-1.28125.57813q-1.04736-3.29663-2.34375-6.48437Zm9.125,6.54688a62.92927,62.92927,0,0,0,2.625-6.40625l1.26563.5q-1.45312,3.73462-2.76562,6.42188Z"/><path class="cls-1" d="M67.61425,42.04221H63.41579L51.258,25.9577h2.45815a2.21642,2.21642,0,0,0,2.20987-2.21V16.31548a2.21634,2.21634,0,0,0-2.20987-2.20987H46.28383A2.21634,2.21634,0,0,0,44.074,16.31548v7.43226a2.21642,2.21642,0,0,0,2.20987,2.21H48.742L36.584,42.04221H32.38575a2.21642,2.21642,0,0,0-2.20987,2.21v7.43226a2.21642,2.21642,0,0,0,2.20987,2.21h7.43235a2.21642,2.21642,0,0,0,2.20987-2.21V48.29584H57.972v3.38859a2.21642,2.21642,0,0,0,2.20987,2.21h7.43235a2.21642,2.21642,0,0,0,2.20987-2.21V44.25217A2.21642,2.21642,0,0,0,67.61425,42.04221ZM46.28383,24.28973a.54916.54916,0,0,1-.5419-.542V16.31548a.54914.54914,0,0,1,.5419-.5419h7.43235a.54914.54914,0,0,1,.5419.5419v7.43226a.54916.54916,0,0,1-.5419.542ZM40.36,51.68443a.54916.54916,0,0,1-.5419.542H32.38575a.54916.54916,0,0,1-.5419-.542V44.25217a.54916.54916,0,0,1,.5419-.542h7.43235a.54916.54916,0,0,1,.5419.542v7.43226Zm1.668-5.05656v-2.3757a2.21642,2.21642,0,0,0-2.20987-2.21H38.675L50,27.05949,61.3248,42.04221H60.18191a2.21642,2.21642,0,0,0-2.20987,2.21v2.3757Zm26.12819,5.05656a.54916.54916,0,0,1-.5419.542H60.18191a.54916.54916,0,0,1-.5419-.542V44.25217a.54916.54916,0,0,1,.5419-.542h7.43235a.54916.54916,0,0,1,.5419.542Z"/></svg>