<svg id="图层_1" data-name="图层 1" xmlns="http://www.w3.org/2000/svg" viewBox="0 0 260 68"><defs><style>.cls-1{fill:#fff;}.cls-2{fill:#4dad52;}.cls-3{fill:#222;}</style></defs><title>tubiao</title><rect class="cls-1" x="100" width="160" height="68"/><rect class="cls-2" width="100" height="68"/><path class="cls-3" d="M141.1875,26.48438l-.3125.42188a15.68824,15.68824,0,0,0,6.92188,5q-.34424.49951-.85937,1.34375a20.4372,20.4372,0,0,1-6.875-5.375,22.84445,22.84445,0,0,1-7.07812,5.75q-.40576-.59326-.90625-1.28125A18.19991,18.19991,0,0,0,139.5,26.48438Zm-8.26562,13.40625h2.10938v-6.0625h1.29688v6.0625h3.23438V31.15625h1.29688v3.45313H145.625V35.75h-4.76562v4.14063h6.25v1.15625h-14.1875Z"/><path class="cls-3" d="M148.29688,39.51563h5.01563V26.60938h1.3125V39.51563h2.73438V26.60938h1.3125V39.51563h5.0625v1.15625h-15.4375Zm1.8125-9.84375q1.28174,3.01611,2.48438,6.40625l-1.28125.57813q-1.04736-3.29736-2.34375-6.48437Zm9.125,6.54688a62.92927,62.92927,0,0,0,2.625-6.40625l1.26563.5q-1.45312,3.73389-2.76562,6.42188Z"/><path class="cls-3" d="M164.32813,40.01563h1.82813V34.98438h11.6875v5.03125h1.85938v1.125h-15.375Zm1.23438-12.71875h1.17188v6.46875H165.5625Zm1.78125,12.71875h2.32813v-3.9375h-2.32812Zm2.79688-13.625v8.09375h-1.1875V26.39063Zm.28125,5.64063a19.21639,19.21639,0,0,0,3.14063-5.79687l1.1875.35938q-.40576,1.04736-.84375,1.98438h5.65625v1.09375h-6.19531a20.33792,20.33792,0,0,1-1.97656,3.09375Q170.92188,32.39063,170.42188,32.03125Zm.40625,7.98438h2.32813v-3.9375h-2.32812Zm3.01563-8.65625.79688-.82812Q176.40576,31.813,178,33.20313l-.875.95313A42.99992,42.99992,0,0,0,173.84375,31.35938Zm2.8125,4.71875H174.3125v3.9375h2.34375Z"/><path class="cls-3" d="M180.21875,34.6875q1.15576-.28125,2.21875-.55469V30.51563h-2.14062v-1.125h2.14063V26.35938h1.21875v3.03125H185.25v1.125h-1.59375V33.8125q.813-.21826,1.5625-.4375a11.20887,11.20887,0,0,0,.10938,1.21875q-.86719.2417-1.67187.47656v4.82031q0,1.65527-1.48437,1.65625-.51562,0-1.60937-.03125a11.583,11.583,0,0,0-.20312-1.29687,13.02984,13.02984,0,0,0,1.375.10938q.70313,0,.70313-.73437V35.42188q-1.10156.3208-2.0625.60938Zm5.84375.23438h8.875v1.09375h-3.84375v3.89063h4.59375V41.0625H185.03125V39.90625H189.875V36.01563h-3.8125Zm3.73438-3.1875q-1.82812,1.64063-3.46875,2.9375l-.85937-.9375a30.95582,30.95582,0,0,0,3.4375-2.85937Zm-3.96875-3.03125h4.48438q-.57861-.91406-1.28125-1.82812l1-.64062q.87451,1.07813,1.48438,1.95313l-.77344.51563H195.25v2.8125h-1.21875V29.84375h-6.98437v1.67188h-1.21875Zm5.4375,3.01563.82813-.8125q2.07861,1.51611,3.51563,2.79688l-.875.98438A36.24893,36.24893,0,0,0,191.26563,31.71875Z"/><path class="cls-3" d="M197.3125,29.70313h6.01563V26.29688h1.34375v3.40625H210.75v7.125h-1.28125v-.84375h-4.79687v5.8125h-1.34375v-5.8125h-4.73437v.84375H197.3125Zm1.28125,5.125h4.73438V30.85938h-4.73437Zm10.875-3.96875h-4.79687v3.96875h4.79688Z"/><path class="cls-3" d="M213.96875,31.01563l1.25.34375q-.71924,3.32813-1.71875,6.46875l-1.25-.48437A47.67,47.67,0,0,0,213.96875,31.01563Zm2.29688-1.67187h1.29688V38.5q0,1.42236,1.26563,1.42188h3.35938q1.34326,0,1.51563-1.125.17139-.98437.29688-2.35937.65625.26514,1.34375.5-.23437,1.64063-.4375,2.45313a2.22686,2.22686,0,0,1-2.46875,1.75h-3.92187q-2.25,0-2.25-2.34375Zm3.4375-3.14062q1.48389,2.46826,2.51563,4.45313-.73389.375-1.25.67188a46.89617,46.89617,0,0,0-2.35937-4.5625Zm5.375,4.32813q1.32861,2.51514,2.76563,5.71875l-1.29687.64063q-1.20264-3.03076-2.64062-5.8125Z"/><path class="cls-1" d="M40.64328,19.7031h0m2.68571.21308,2.99,1.91689q.05349.03432.10953.06453c.02955.02182.05995.04271.09085.06254L67.386,35.33619a1.23211,1.23211,0,0,1-.06114,2.10934L57.07813,43.1806a3.15264,3.15264,0,0,1-3.24832-.098L34.53315,30.71249a.99374.99374,0,0,1-.3067-1.363l6.275-9.43334H43.329m.14112-1.668H40.24437a1.18884,1.18884,0,0,0-.98852.529l-6.41818,9.6485-.01087.01647a2.66246,2.66246,0,0,0,.80546,3.6741L52.9296,44.48686a4.82087,4.82087,0,0,0,4.96486.14834l10.24508-5.73415a2.90006,2.90006,0,0,0,.14842-4.968L47.41961,20.55589a.78833.78833,0,0,0-.06572-.04763,1.15612,1.15612,0,0,0-.13467-.07939l-3.10856-1.99292a1.18784,1.18784,0,0,0-.64056-.18778Z"/><rect class="cls-1" x="33.44601" y="26.12076" width="16.08934" height="1.66748" transform="translate(-4.21073 45.91242) rotate(-55.53956)"/><path class="cls-1" d="M31.21453,49.75184a.83434.83434,0,0,1-.83416-.83416V37.44056a.83416.83416,0,0,1,1.66831,0V48.91768A.83434.83434,0,0,1,31.21453,49.75184Z"/><path class="cls-1" d="M38.21383,45.83918H31.47537a.83416.83416,0,0,1,0-1.66831h6.39271l3.23405-3.23338a.83384.83384,0,1,1,1.17923,1.17923l-3.47792,3.47792A.83255.83255,0,0,1,38.21383,45.83918Z"/></svg>