<svg id="图层_1" data-name="图层 1" xmlns="http://www.w3.org/2000/svg" viewBox="0 0 260 68"><defs><style>.cls-1{fill:#fff;}.cls-2{fill:#ff6c60;}.cls-3{fill:#222;}</style></defs><title>tubiao</title><rect class="cls-1" x="100" width="160" height="68"/><rect class="cls-2" width="100" height="68"/><path class="cls-1" d="M59.85688,50.17572H51.28725V48.56724h8.56964a8.35924,8.35924,0,0,0,0-16.71849h-3.737l-.04519-.75676a12.40686,12.40686,0,0,0-24.348-2.5388l-1.55085-.425a14.01561,14.01561,0,0,1,27.43921,2.11212h2.24179a9.96773,9.96773,0,0,1,0,19.93546Z"/><path class="cls-1" d="M33.27448,31.93478l-.05572.04953a5.60989,5.60989,0,0,1-1.04018.678A6.4511,6.4511,0,0,1,30.9,33.19051l-.1455.03986v1.3664l.24611-.06075a4.88262,4.88262,0,0,0,1.05875-.41754,5.45178,5.45178,0,0,0,.48991-.284v6.43263H33.9184V31.93478Z"/><path class="cls-1" d="M39.02488,31.97464a2.40824,2.40824,0,0,0-2.14228,1.14582,5.99107,5.99107,0,0,0-.71358,3.21844,5.45663,5.45663,0,0,0,.68184,2.982,2.26893,2.26893,0,0,0,1.99832,1.07656,2.40928,2.40928,0,0,0,2.11209-1.128,5.623,5.623,0,0,0,.72828-3.1159C41.68957,33.38051,40.79334,31.97464,39.02488,31.97464ZM38.93975,39.189c-.91016,0-1.37143-.974-1.37143-2.89494,0-2.061.47133-3.10584,1.40084-3.10584.87378,0,1.31648,1.02818,1.31648,3.05553C40.28563,38.19792,39.83288,39.189,38.93975,39.189Z"/><path class="cls-1" d="M45.31627,31.93478l-.05572.04953a5.60989,5.60989,0,0,1-1.04018.678,6.4511,6.4511,0,0,1-1.27855.52822l-.1455.03986v1.3664l.24611-.06075a4.88262,4.88262,0,0,0,1.05875-.41754,5.45178,5.45178,0,0,0,.48991-.284v6.43263h1.36911V31.93478Z"/><path class="cls-1" d="M33.80076,41.9994l-.05572.04915a5.48885,5.48885,0,0,1-1.01928.66443,6.22055,6.22055,0,0,1-1.25224.517l-.1455.04025V44.618l.24534-.06075a4.77185,4.77185,0,0,0,1.03941-.4098,5.27286,5.27286,0,0,0,.4752-.27475v6.303h1.34976V41.9994Z"/><path class="cls-1" d="M39.43894,41.9994a2.33554,2.33554,0,0,0-2.08113,1.1137,5.805,5.805,0,0,0-.69268,3.12286,5.29117,5.29117,0,0,0,.66095,2.893,2.20254,2.20254,0,0,0,1.94182,1.04676,2.33993,2.33993,0,0,0,2.0525-1.0959A5.45267,5.45267,0,0,0,42.027,46.056C42.027,43.36425,41.15632,41.9994,39.43894,41.9994Zm1.21587,4.14408c0,1.89036-.43728,2.84889-1.29868,2.84889-.87843,0-1.32344-.94228-1.32344-2.80052,0-1.99329.45508-3.00406,1.35208-3.00406C40.22759,43.18779,40.6548,44.1823,40.6548,46.14348Z"/><path class="cls-1" d="M45.5113,43.69395a1.86793,1.86793,0,0,0-1.664.89081,4.58014,4.58014,0,0,0-.5495,2.46617,4.17984,4.17984,0,0,0,.52473,2.28662,1.76329,1.76329,0,0,0,1.55485.83818,1.87046,1.87046,0,0,0,1.64153-.87688,4.308,4.308,0,0,0,.56034-2.38839C47.57928,44.77631,46.8835,43.69395,45.5113,43.69395Zm.90784,3.28462c0,1.45-.32738,2.18523-.97285,2.18523-.65785,0-.99142-.72248-.99142-2.14731,0-1.53047.34131-2.30635,1.01464-2.30635C46.0995,44.71013,46.41914,45.47324,46.41914,46.97856Z"/><path class="cls-1" d="M52.14555,50.17572H50.79579v-6.303a5.27286,5.27286,0,0,1-.4752.27475,4.77185,4.77185,0,0,1-1.03941.4098l-.24534.06075V43.27021l.1455-.04025a6.22055,6.22055,0,0,0,1.25224-.517,5.48885,5.48885,0,0,0,1.01928-.66443l.05572-.04915h.637Z"/><path class="cls-3" d="M141.1875,26.32031l-.3125.42188a15.68448,15.68448,0,0,0,6.92188,5q-.34424.50024-.85937,1.34375a20.4372,20.4372,0,0,1-6.875-5.375,22.83758,22.83758,0,0,1-7.07812,5.75q-.40576-.59326-.90625-1.28125A18.19188,18.19188,0,0,0,139.5,26.32031Zm-8.26562,13.40625h2.10938v-6.0625h1.29688v6.0625h3.23438V30.99219h1.29688v3.45313H145.625v1.14063h-4.76562v4.14063h6.25v1.15625h-14.1875Z"/><path class="cls-3" d="M148.29688,39.35156h5.01563V26.44531h1.3125V39.35156h2.73438V26.44531h1.3125V39.35156h5.0625v1.15625h-15.4375Zm1.8125-9.84375q1.28174,3.01611,2.48438,6.40625l-1.28125.57813q-1.04736-3.29663-2.34375-6.48437Zm9.125,6.54688a62.92927,62.92927,0,0,0,2.625-6.40625l1.26563.5q-1.45312,3.73462-2.76562,6.42188Z"/><path class="cls-3" d="M164.21875,40.32031q6.44531-2.8667,6.95313-8.60937H164.5V30.49219h6.72656q.03955-2.10132.03906-4.23437H172.625q0,2.10205-.03906,4.23438h6.92969v1.21875H172.5625a9.9677,9.9677,0,0,0,7.28125,8.23438,12.92681,12.92681,0,0,0-1.1875,1.26563,10.82641,10.82641,0,0,1-6.64844-7.28906q-1.21875,4.74243-6.82031,7.60156Q164.87549,41.10156,164.21875,40.32031Z"/><path class="cls-3" d="M180.375,35.22656h2.375q.34424-.59326.67188-1.21875l1.125.35938q-.25049.438-.5.85938H187.875v1.01563a7.39375,7.39375,0,0,1-1.79687,2.6875q.85986.40649,1.75.8125l-.6875,1.07813q-.96826-.54712-2.01562-1.09375a13.86711,13.86711,0,0,1-4.45312,2q-.25049-.50024-.53125-1.09375A12.70746,12.70746,0,0,0,184,39.14844q-1.34326-.687-2.8125-1.40625.49951-.71851.96875-1.48437H180.375Zm.17188-5.375h3.59375v-3.5h1.15625v3.5h3v1.03125h-3v.95313l.46875-.53125q1.45313,1.06274,2.4375,1.875l-.75.875q-.85986-.81226-2.15625-1.82812v1.78125h-1.15625v-2.1875a15.595,15.595,0,0,1-3.3125,2.60938q-.29736-.45264-.67187-.95312a17.31794,17.31794,0,0,0,3.60938-2.59375h-3.21875Zm.40625-2.42187.89063-.60937q.70313.85986,1.45313,1.84375l-.96875.6875Q181.64111,28.33643,180.95313,27.42969Zm1.76563,9.95313q1.10889.50024,2.28125,1.04688a6.68473,6.68473,0,0,0,1.6875-2.17187h-3.25Q183.07861,36.83643,182.71875,37.38281Zm4.875-10.64062.96875.64063q-.85986,1.125-1.71875,2.07813-.35889-.312-.84375-.65625Q186.813,27.85181,187.59375,26.74219Zm2.84375-.53125,1.25.1875a26.95021,26.95021,0,0,1-.76562,2.82813h4.78125v1.0625h-.98437a17.13013,17.13013,0,0,1-2,7.29688,10.01649,10.01649,0,0,0,3.21875,2.8125q-.49951.687-.84375,1.23438a12.09976,12.09976,0,0,1-3.17187-2.9375A14.96685,14.96685,0,0,1,188.5,41.78906a8.97272,8.97272,0,0,0-.89062-.98437,13.79784,13.79784,0,0,0,3.54688-3.26562,13.86475,13.86475,0,0,1-1.67187-5.04687,11.94407,11.94407,0,0,1-.6875,1.07813,12.27406,12.27406,0,0,0-.78125-1A15.29169,15.29169,0,0,0,190.4375,26.21094Zm3.03125,4.07813h-2.92187c-.05176.13574-.10937.26563-.17187.39063a14.3197,14.3197,0,0,0,1.5625,5.67188A14.99,14.99,0,0,0,193.46875,30.28906Z"/><path class="cls-3" d="M196.25,34.55469q1.10889-.30469,2.15625-.61719V30.36719H196.4375v-1.125h1.96875V26.25781h1.15625v2.98438h1.70313v1.125H199.5625v3.21094q.74268-.23437,1.45313-.47656a9.82061,9.82061,0,0,0,.09375,1.21875q-.8042.25781-1.54687.50781v4.72656q0,1.76514-1.54687,1.79688-.48486.01538-1.4375-.01562-.063-.62549-.1875-1.29687a13.10057,13.10057,0,0,0,1.3125.09375q.70313,0,.70313-.79687v-4.125q-1.0708.35962-2,.6875Zm7,1.57813h3.21875V34.14844h-3.64062q-.17139,4.80469-2.21875,7.42188-.375-.48486-.84375-.98437,1.95264-2.406,1.95313-7.39062V27.10156h9.21875v4.53125h-1.125v-.48437h-6.96875v1.9375h3.625V31.44531h1.125v1.64063h4.125v1.0625h-4.125v1.98438h3.25v5.28125h-1.125v-.90625H204.375v.90625H203.25Zm6.5625-8h-6.96875v1.98438h6.96875Zm-.09375,9.03125H204.375v2.32813h5.34375Z"/></svg>