<svg id="图层_1" data-name="图层 1" xmlns="http://www.w3.org/2000/svg" viewBox="0 0 260 68"><defs><style>.cls-1{fill:#fff;}.cls-2{fill:#846fd7;}.cls-3{fill:#222;}</style></defs><title>tubiao</title><rect class="cls-1" x="100" width="160" height="68"/><rect class="cls-2" width="100" height="68"/><path class="cls-3" d="M133.3125,29.71875h6.01563V26.3125h1.34375v3.40625H146.75v7.125h-1.28125V36h-4.79687v5.8125h-1.34375V36h-4.73437v.84375H133.3125Zm1.28125,5.125h4.73438V30.875h-4.73437Zm10.875-3.96875h-4.79687v3.96875h4.79688Z"/><path class="cls-3" d="M148.1875,36.125a16.8429,16.8429,0,0,0,2.375-5.59375h-2.26562v-1.0625h2.375v-3.0625h1.09375v3.0625h2.125v1.0625h-2.125v2.76563l.67188-.70312q1.00049.85986,1.76563,1.65625l-.82812.85938q-.75-.85107-1.60937-1.71875v8.25h-1.09375V33.17969A15.5631,15.5631,0,0,1,148.70313,37.5Q148.48486,36.82837,148.1875,36.125Zm7.14063-1.64062,1.17188.46875q-1.28174,2.85938-2.54687,5.07813a9.00777,9.00777,0,0,0-1.14062-.54687A37.024,37.024,0,0,0,155.32813,34.48438ZM153.875,31.90625h9.75V33h-4.3125v6.53125q0,1.95264-1.79687,1.95313-.84375.01538-2.07812-.01562-.07764-.5625-.21875-1.29687a17.28619,17.28619,0,0,0,1.96875.125q.9375,0,.9375-1.15625V33h-4.25Zm.71875-4.57812h8.3125v1.09375h-8.3125Zm5.75,7.6875,1.10938-.53125q1.48389,2.844,2.46875,4.98438l-1.25.54688Q161.65674,37.59424,160.34375,35.01563Z"/><path class="cls-3" d="M164.32813,40.03125h1.82813V35h11.6875v5.03125h1.85938v1.125h-15.375ZM165.5625,27.3125h1.17188v6.46875H165.5625Zm1.78125,12.71875h2.32813v-3.9375h-2.32812Zm2.79688-13.625V34.5h-1.1875V26.40625Zm.28125,5.64063A19.21639,19.21639,0,0,0,173.5625,26.25l1.1875.35938q-.40576,1.04736-.84375,1.98438h5.65625V29.6875h-6.19531a20.33792,20.33792,0,0,1-1.97656,3.09375Q170.92188,32.40625,170.42188,32.04688Zm.40625,7.98438h2.32813v-3.9375h-2.32812Zm3.01563-8.65625.79688-.82812Q176.40576,31.82861,178,33.21875l-.875.95313A43.11126,43.11126,0,0,0,173.84375,31.375Zm2.8125,4.71875H174.3125v3.9375h2.34375Z"/><path class="cls-3" d="M180.21875,34.70313q1.15576-.28125,2.21875-.55469V30.53125h-2.14062v-1.125h2.14063V26.375h1.21875v3.03125H185.25v1.125h-1.59375v3.29688q.813-.21826,1.5625-.4375a11.20887,11.20887,0,0,0,.10938,1.21875q-.86719.24243-1.67187.47656v4.82031q0,1.656-1.48437,1.65625-.51562,0-1.60937-.03125a11.60054,11.60054,0,0,0-.20312-1.29687,12.8971,12.8971,0,0,0,1.375.10938q.70313,0,.70313-.73437V35.4375q-1.10156.3208-2.0625.60938Zm5.84375.23438h8.875v1.09375h-3.84375v3.89063h4.59375v1.15625H185.03125V39.92188H189.875V36.03125h-3.8125Zm3.73438-3.1875q-1.82812,1.64063-3.46875,2.9375l-.85937-.9375a30.84876,30.84876,0,0,0,3.4375-2.85937Zm-3.96875-3.03125h4.48438q-.57861-.91406-1.28125-1.82812l1-.64062q.87451,1.07813,1.48438,1.95313l-.77344.51563H195.25v2.8125h-1.21875V29.85938h-6.98437v1.67188h-1.21875Zm5.4375,3.01563.82813-.8125q2.07861,1.51611,3.51563,2.79688l-.875.98438A36.24893,36.24893,0,0,0,191.26563,31.73438Z"/><path class="cls-3" d="M200.20313,37.07813l1.01563.79688q-1.99951,1.79736-4.20312,3.46875-.375-.45337-.85937-.95312A32.4514,32.4514,0,0,0,200.20313,37.07813Zm7.03125-4.29687q1.99951,1.60986,4.09375,3.53125-.51562.50024-.95312.95313-.64893-.64014-1.3125-1.26562-2.08594.08643-4.26562.20313v3.51563q0,1.78125-1.875,1.78125-.76611,0-2.01562-.03125-.07764-.57861-.20312-1.28125,1.3125.14063,2.01563.14063a.75263.75263,0,0,0,.85938-.84375V36.26563q-1.89844.10181-3.85937.21875a14.33794,14.33794,0,0,0-1.76562.20313l-.51562-1.34375a8.19266,8.19266,0,0,0,1.95313-.60937q2.39063-1.17187,4.4375-2.35937-2.71875.21094-4.5625.375a10.96805,10.96805,0,0,0-1.23437.17188l-.5-1.3125a5.87953,5.87953,0,0,0,1.40625-.54687,33.6102,33.6102,0,0,0,3.92969-2.58594q-2.6792.16406-5.42969.28906a10.742,10.742,0,0,0-.28125-1.09375q7.45313-.28125,13.23438-.85937l.23438,1.10938q-3.39111.28125-6.88281.50781l.63281.44531q-2.45361,1.64063-4.53125,2.76563,3.49951-.19482,5.79688-.375,1.563-.99976,2.89063-2.01562l1.01563.82813a58.57137,58.57137,0,0,1-9.10937,5.23438q3.10986-.10913,7.53906-.32812-.78076-.71851-1.57031-1.40625Zm-.92187,5.125.79688-.84375q1.96875,1.3125,4.32813,3.14063l-.92187,1.01563Q208.32861,39.406,206.3125,37.90625Z"/><path class="cls-3" d="M212.20313,39.09375q2.59424-.49951,5.35938-1.125-.063.813-.0625,1.125-2.82861.62549-4.9375,1.1875Zm2.03125-3.28125q1.24951-.17139,3.20313-.46875-.09375.62549-.15625,1.15625-1.95264.26587-4.46875.67188l-.25-1.125a18.14187,18.14187,0,0,0,2.32031-3.25781q-1.62451.10986-2.33594.16406l-.29687-1.0625a27.29835,27.29835,0,0,0,2.96875-5.53125l1.1875.46875q-1.51611,2.96924-2.76562,4.96875,1.02393-.01538,1.84375-.04687.46875-.83569.98438-1.8125l1.17188.51563A61.087,61.087,0,0,1,214.23438,35.8125ZM224.75,30.54688q1.3125,1.76587,2.6875,3.98438-.54639.31274-1.15625.70313-.39111-.66357-.75-1.27344-.72656.04688-1.5.08594v5.29688q0,.95288.70313.95313H225.5a.8022.8022,0,0,0,.875-.78125,19.65789,19.65789,0,0,0,.15625-2.03125q.51563.219,1.25.45313-.12451,1.35938-.26562,2.10938a1.47728,1.47728,0,0,1-1.64062,1.35938h-1.34375q-1.70361,0-1.70312-1.95312V34.11719q-.87451.04688-1.8125.10938a11.44106,11.44106,0,0,1-.875,4.74219,6.71246,6.71246,0,0,1-3.32812,2.84375q-.34424-.48486-.79687-1.04687a5.54166,5.54166,0,0,0,3.03125-2.42187,8.7926,8.7926,0,0,0,.75781-4.03906q-.3208.02344-.64844.03906a8.75033,8.75033,0,0,0-1.25.20313l-.53125-1.21875a2.85016,2.85016,0,0,0,1.07813-.75,27.13666,27.13666,0,0,0,2.20313-3.04687H217.25V28.42188h4.98438q-.58594-.89795-1.10937-1.59375l1.03125-.64062q.59326.73462,1.32813,1.75l-.74219.48438H227.5v1.10938h-6.34375l.85938.375q-1.29639,1.75049-2.54687,3.21875,2.9458-.10107,5.41406-.21094-.59326-.95288-1.13281-1.74219Z"/><path class="cls-1" d="M59.89134,33.166a9.92539,9.92539,0,0,0-9.05685-9.05736V18.41442H49.16618v5.69424A9.92561,9.92561,0,0,0,40.10866,33.166H34.41425v1.66831h5.69441a9.92542,9.92542,0,0,0,9.05753,9.057v5.69424H50.8345V43.89134a9.92535,9.92535,0,0,0,9.05685-9.057h5.69441V33.166ZM50.8345,42.2232a8.26622,8.26622,0,1,1,7.3887-7.38887A8.31221,8.31221,0,0,1,50.8345,42.2232Z"/><path class="cls-1" d="M31.84385,17.26941a1.4272,1.4272,0,0,1,1.42547-1.42556h8.79329v-1.668H33.26932a3.10268,3.10268,0,0,0-3.09344,3.09353v8.79312h1.668Z"/><path class="cls-1" d="M66.73068,15.84385a1.4272,1.4272,0,0,1,1.42547,1.42556v8.79312h1.668V17.26941a3.10257,3.10257,0,0,0-3.09344-3.09353H57.93756v1.668Z"/><path class="cls-1" d="M33.26932,52.15615a1.42713,1.42713,0,0,1-1.42547-1.42547V41.93756h-1.668v8.79312a3.1026,3.1026,0,0,0,3.09344,3.09344h8.79329v-1.668Z"/><path class="cls-1" d="M68.15615,50.73068a1.42713,1.42713,0,0,1-1.42547,1.42547H57.93756v1.668h8.79312a3.10249,3.10249,0,0,0,3.09344-3.09344V41.93756h-1.668Z"/></svg>