<svg id="图层_1" data-name="图层 1" xmlns="http://www.w3.org/2000/svg" viewBox="0 0 260 68"><defs><style>.cls-1{fill:#fff;}.cls-2{fill:#57c8f2;}.cls-3{fill:#222;}</style></defs><title>tubiao</title><rect class="cls-1" x="100" width="160" height="68"/><rect class="cls-2" width="100" height="68"/><path class="cls-1" d="M69.109,47.95813H35.51963a.83431.83431,0,1,0,0,1.66814H69.109a.83431.83431,0,1,0,0-1.66814Z"/><path class="cls-1" d="M69.08092,51.96545H35.02468a3.33143,3.33143,0,0,1-3.32728-3.32739h0a3.33129,3.33129,0,0,1,3.32728-3.32727H66.43741a4.02771,4.02771,0,0,0,3.43626-3.97764V15.411a1.02493,1.02493,0,0,0-1.03545-1.03543H31.10405A1.02746,1.02746,0,0,0,30.06843,15.411v32.6666a4.99038,4.99038,0,0,0,4.95625,5.54682H69.08092a.82949.82949,0,0,0,0-1.659ZM31.72908,16.03624H68.213V41.33316a2.36338,2.36338,0,0,1-1.91391,2.317c-.05191.01-.10419.01884-.1572.02533a1.66117,1.66117,0,0,0-.28846-.02533H35.02468a4.96716,4.96716,0,0,0-3.29561,1.24723Z"/><path class="cls-1" d="M42.07373,30.679h2.179A5.71764,5.71764,0,0,0,45.33837,33.3L43.7976,34.84072a.83405.83405,0,1,0,1.17953,1.17953l1.54077-1.54076a5.71763,5.71763,0,0,0,2.62092,1.08562v2.179a.83407.83407,0,1,0,1.66814,0v-2.179a5.71778,5.71778,0,0,0,2.621-1.08564l1.54077,1.54077a.83405.83405,0,1,0,1.17953-1.17953L54.60744,33.3a5.71783,5.71783,0,0,0,1.08564-2.621H57.872a.83407.83407,0,0,0,0-1.66814H55.69308a5.71774,5.71774,0,0,0-1.08564-2.62093l1.54077-1.54075a.83405.83405,0,1,0-1.17953-1.17953l-1.54077,1.54075a5.71768,5.71768,0,0,0-2.621-1.08565v-2.179a.83407.83407,0,1,0-1.66814,0v2.179a5.71771,5.71771,0,0,0-2.62094,1.08564l-1.54074-1.54074a.83405.83405,0,0,0-1.17953,1.17953l1.54074,1.54075a5.718,5.718,0,0,0-1.08564,2.62094h-2.179a.83407.83407,0,0,0,0,1.66814ZM45.946,29.01084a4.0872,4.0872,0,0,1,.59048-1.42275,4.13237,4.13237,0,0,1,1.17953-1.17953,4.087,4.087,0,0,1,1.42276-.59048,4.14482,4.14482,0,0,1,1.66814,0,4.08729,4.08729,0,0,1,1.4228.59049,4.13229,4.13229,0,0,1,1.1795,1.17953,4.08672,4.08672,0,0,1,.59048,1.42275,4.14511,4.14511,0,0,1,0,1.66814,4.08685,4.08685,0,0,1-.59048,1.42278,4.13265,4.13265,0,0,1-1.17953,1.17952,4.0872,4.0872,0,0,1-1.42278.59048,4.14482,4.14482,0,0,1-1.66814,0,4.087,4.087,0,0,1-1.42273-.59047,4.13246,4.13246,0,0,1-1.17955-1.17952A4.08689,4.08689,0,0,1,45.946,30.679a4.14511,4.14511,0,0,1,0-1.66814Z"/><path class="cls-3" d="M132.3125,35.60156h7.32813v-.98437l3.07813-1.9375h-7.5625V31.53906H144.625v1.26563l-3.70312,2.375v.42188H147.75v1.15625h-6.82812v2.875a1.75389,1.75389,0,0,1-1.98437,1.98438q-.79687,0-2.32812-.03125-.063-.594-.1875-1.39062a16.12145,16.12145,0,0,0,2.1875.17188q1.03125,0,1.03125-1.10937v-2.5H132.3125Zm.59375-6.89062h7.1875q-.57861-.82031-1.39062-1.79687l1.04688-.70312a19.661,19.661,0,0,1,1.625,2l-.74219.5h6.58594v3.17188h-1.26562V29.85156H134.15625v2.03125h-1.25Z"/><path class="cls-3" d="M153.64063,26.46094h1.15625v1.9375h2.46875v-1.9375h1.15625v1.9375h3.625v8.0625h1.51563v1.15625H148.5V36.46094h1.51563v-8.0625h3.625Zm.28125,11.65625.64063,1.0625q-2.40674,1.21875-5.3125,2.59375-.32812-.54712-.73437-1.125Q151.62549,39.28906,153.92188,38.11719Zm-2.75-5.71875h2.46875V29.55469h-2.46875Zm0,4.0625h2.46875V33.55469h-2.46875Zm3.625-4.0625h2.46875V29.55469h-2.46875Zm0,4.0625h2.46875V33.55469h-2.46875ZM158,38.17969q2.73486,1.20337,5.40625,2.42188l-.625,1.1875q-2.90625-1.45312-5.40625-2.54687Zm2.89063-8.625h-2.46875v2.84375h2.46875Zm-2.46875,6.90625h2.46875V33.55469h-2.46875Z"/><path class="cls-3" d="M168.96875,30.83594q-.59326-.78076-1.29687-1.59375l.70313-.5h-1.34375a12.17188,12.17188,0,0,1-2,2.01563q-.312-.375-.78125-.875a11.12027,11.12027,0,0,0,2.98438-3.57812h1.34375a14.40347,14.40347,0,0,1-.85156,1.46875h4.58594v.96875h-3.75q.70313.67969,1.32813,1.39063Zm-4.07812.07813h6.67969q-.27393-.49219-.66406-1.09375l1.07813-.46875a14.78142,14.78142,0,0,1,.9375,1.5625h6.17188v2.42188h-1.20312V31.92969H166.09375v1.42188h-1.20312Zm1.76563,2.17188h9.625v3.76563h-1.1875v-.39062h-7.23437v1.1875h9.73438v4.07813h-1.1875v-.59375h-8.54687v.60938h-1.20312Zm8.4375.9375h-7.23437v1.5h7.23438Zm1.3125,4.5625h-8.54687v1.53125h8.54688Zm-.29687-7.76562a19.628,19.628,0,0,0-1.26562-1.59375l.67969-.48437h-1.32031a13.33928,13.33928,0,0,1-.95312,1.34375,7.05653,7.05653,0,0,0-.95312-.76562,10.28206,10.28206,0,0,0,1.82813-3.01562h1.34375q-.33545.77344-.71094,1.46875H179.75v.96875h-4a17.25152,17.25152,0,0,1,1.28125,1.375Z"/><path class="cls-3" d="M180.10938,39.16406q1.20264-.28857,2.32813-.57812V33.85156h-1.95312V32.75781h1.95313V28.85156h-2.10937V27.75781h5.375v1.09375h-2.10937v3.90625h1.98438v1.09375h-1.98437v4.42188q1.03125-.28857,2-.57812.07764.70313.17188,1.21875-2.67187.71924-5.23437,1.51563Zm4.96875.92188h4.89063v-2.25h-3.98437V36.74219h3.98438v-2.0625h-2.5v.57813H186.3125v-8.0625h8.46875v8.0625H193.625v-.57812h-2.5v2.0625h3.98438v1.09375H191.125v2.25h4.67188v1.09375H185.07813Zm2.39063-9.67187h2.5V28.25781h-2.5Zm0,3.20313h2.5V31.44531h-2.5Zm6.15625-5.35937h-2.5v2.15625h2.5Zm-2.5,5.35938h2.5V31.44531h-2.5Z"/></svg>