<svg id="图层_1" data-name="图层 1" xmlns="http://www.w3.org/2000/svg" viewBox="0 0 160 160"><defs><style>.cls-1{fill:#ebcf89;}.cls-2{font-size:19px;font-family:MicrosoftYaHei, Microsoft YaHei;}.cls-2,.cls-3{fill:#fff;}</style></defs><title>iconfontquanzi</title><rect class="cls-1" width="160" height="160"/><text class="cls-2" transform="translate(42.00037 136.56348)">我的项目</text><path class="cls-3" d="M101.25519,31.3086a6.07282,6.07282,0,0,1,6.06592,6.06595V90.5128a6.07255,6.07255,0,0,1-6.06592,6.06543H48.11688a6.07229,6.07229,0,0,1-6.06543-6.06543V37.37455a6.07256,6.07256,0,0,1,6.06543-6.06595h53.13831m0-4.562H48.11688a10.628,10.628,0,0,0-10.62744,10.628V90.5128a10.6276,10.6276,0,0,0,10.62744,10.62744h53.13831A10.62771,10.62771,0,0,0,111.88312,90.5128V37.37455a10.62807,10.62807,0,0,0-10.62793-10.628Z"/><path class="cls-3" d="M111.88262,16.11913H58.74431a10.628,10.628,0,0,0-10.62744,10.628V29.181c1.52-.16461,3.04041-.32391,4.562-.46936V26.74712a6.07258,6.07258,0,0,1,6.06543-6.066h53.13831a6.07284,6.07284,0,0,1,6.06592,6.066V79.88536a6.07257,6.07257,0,0,1-6.06592,6.06543H109.5291c.03943,1.1908.10852,2.38086.09229,3.57306-.00439.32416-.019.65637-.03577.989h2.297a10.62769,10.62769,0,0,0,10.62793-10.62744V26.74712A10.62808,10.62808,0,0,0,111.88262,16.11913Z"/><path class="cls-3" d="M98.06132,41.61394a2.11969,2.11969,0,1,1,2.11949-2.1199,2.11975,2.11975,0,0,1-2.11949,2.1199ZM38.98033,48.002H110.0442v4.23939H38.98033Zm3.82284,0,40.48825-6.34016H50.13919a2.0223,2.0223,0,0,1-2.0223-2.0223v-.2427a2.0223,2.0223,0,0,1,2.0223-2.0223H83.29142a2.0223,2.0223,0,0,1,2.0223,2.0223v.2427A2.0223,2.0223,0,0,1,83.29142,41.66183Z"/></svg>