<svg id="图层_1" data-name="图层 1" xmlns="http://www.w3.org/2000/svg" viewBox="0 0 160 160"><defs><style>.cls-1{fill:#cdd541;}.cls-2{font-size:19px;font-family:MicrosoftYaHei, Microsoft YaHei;}.cls-2,.cls-4{fill:#fff;}.cls-3,.cls-5{fill:none;stroke:#fff;stroke-linecap:round;stroke-width:4.562px;}.cls-3{stroke-linejoin:round;}.cls-5{stroke-miterlimit:10;}</style></defs><title>iconfontquanzi</title><rect class="cls-1" width="160" height="160"/><text class="cls-2" transform="translate(51.50024 136.56348)">业务圈</text><path class="cls-3" d="M89.79039,49.85638a9.79092,9.79092,0,0,1-19.58078,0"/><path class="cls-4" d="M79.99993,20.617A23.85354,23.85354,0,1,1,55.89215,44.46952,24.0084,24.0084,0,0,1,79.99993,20.617m0-4.562a28.41534,28.41534,0,1,0,28.66992,28.41458A28.54187,28.54187,0,0,0,79.99993,16.05494Z"/><path class="cls-5" d="M125.33645,101.20441q.03277-.68074.03286-1.36966a28.17331,28.17331,0,0,0-7.98312-19.65127,20.808,20.808,0,0,0-4.59672-40.29791"/><path class="cls-5" d="M34.66355,101.20441q-.03277-.68074-.03286-1.36966a28.17331,28.17331,0,0,1,7.98312-19.65127,20.808,20.808,0,0,1,4.59672-40.29791"/><path class="cls-3" d="M102.14713,101.20441A51.11648,51.11648,0,0,0,90.92426,69.195"/><path class="cls-3" d="M69.07574,69.195a51.11648,51.11648,0,0,0-11.22287,32.00939"/></svg>