<?xml version="1.0" encoding="utf-8"?>
<!-- Generator: Adobe Illustrator 21.0.0, SVG Export Plug-In . SVG Version: 6.00 Build 0)  -->
<svg version="1.1" id="图层_1" xmlns="http://www.w3.org/2000/svg" xmlns:xlink="http://www.w3.org/1999/xlink" x="0px" y="0px"
	 viewBox="0 0 1366 768" style="enable-background:new 0 0 1366 768;" xml:space="preserve">
<style type="text/css">
	.st0{fill:#26ABE2;}
</style>
<g>
	<polygon class="st0" points="814.9,367.2 813.9,344.4 777.9,347.8 779,244.4 748,243 751,308.8 736.8,262.7 716.3,270.5 
		741.3,332.5 751.9,329.6 752.9,350.1 715.3,354.7 716.3,369.5 752.9,368.3 753,378.5 715.3,451 723.8,462.4 754,422.5 756.4,506.7 
		774.9,508.1 775.9,410.8 805.8,451.9 814.4,440.4 776.9,368.3 	"/>
	<polygon class="st0" points="814.9,263.8 799.6,329.6 786.1,327.3 793.4,260.4 	"/>
	<polygon class="st0" points="872,457 843,458.2 843.3,471 821.8,471.8 813.8,381.1 839.3,377.1 843,443.4 868.4,440.3 	"/>
	<polygon class="st0" points="902.7,364.7 900.4,455.9 875.8,456.9 877.4,392.5 848.1,397.7 844.3,383.8 	"/>
	<polygon class="st0" points="847.7,366 845.9,304.5 818.4,303.2 819.5,290.8 844.8,289.6 843.6,246 876.3,244.9 874,288.5 
		901.5,287.3 900.4,307.4 871.9,305.9 867.6,368.5 	"/>
	<path class="st0" d="M919.2,503.6l-17.6-3.7l8.7-243.9l25.7-5c0,0,0.2,19.7,0,26.2c-0.5,14.6-3.7,58.5-3.7,58.5l21.5,0.6l2.8,13.1
		l-25.6,3.3L919.2,503.6z"/>
	<polygon class="st0" points="964.9,271.8 945.8,275.4 942.3,260.1 994.9,250.9 987,508.2 952.8,501.5 958,408.7 936.1,409.9 
		932.1,392.2 958,395 	"/>
	<path class="st0" d="M785.2,363.4C785.3,363.4,785.3,363.4,785.2,363.4C785.3,363.4,785.3,363.4,785.2,363.4
		C785.2,363.4,785.2,363.4,785.2,363.4C785.2,363.4,785.2,363.4,785.2,363.4z"/>
</g>
<g>
	<path class="st0" d="M546.6,354.1"/>
	<polygon class="st0" points="456.4,309.2 426.6,268.9 452.5,241.4 484.1,303.5 497.9,299.4 497.9,315 487.5,319.8 493.3,506.1 
		426.6,490.3 433.2,465.2 455.6,477.1 459,424.4 431.3,442.2 426.7,418.6 459.6,388.4 458.7,331.3 434.8,341.1 431.3,318.4 	"/>
	<polygon class="st0" points="525.4,328.9 529.5,295.4 508.2,296.5 507,270.1 532.7,270.3 535.6,246.6 554.3,245.4 557.3,270.4 
		623,270.8 619.4,241.4 654.1,242.9 654.1,271 689.4,271.3 690.5,287.6 654.1,289.4 654.1,325.2 628.6,326.3 625.3,290.8 
		557.8,294.1 558.6,330.3 	"/>
	<polyline class="st0" points="637.6,432 637.6,401.6 606.9,404.6 607.9,375.6 573.9,380.1 576.7,407.4 542.5,410.6 543.5,429.8 
		576.7,430.6 578.6,465.4 607,468.8 608,431.3 	"/>
	<polygon class="st0" points="548.9,374.2 544.6,355.4 683.9,335.5 678.9,496 641.7,495.3 645.2,366 	"/>
	<polygon class="st0" points="537.3,477.1 632,473.2 636.7,495.2 537.3,493.3 537.3,507.1 512.6,509.8 502.7,356.8 534.7,350 	"/>
</g>
</svg>
