<?xml version="1.0" encoding="utf-8"?>
<!-- Generator: Adobe Illustrator 21.0.0, SVG Export Plug-In . SVG Version: 6.00 Build 0)  -->
<svg version="1.1" id="图层_1" xmlns="http://www.w3.org/2000/svg" xmlns:xlink="http://www.w3.org/1999/xlink" x="0px" y="0px"
	 viewBox="0 0 439 345" style="enable-background:new 0 0 439 345;" xml:space="preserve">
<style type="text/css">
	.st0{fill:#0AABB6;}
	.st1{fill:#335872;}
	.st2{fill:#FF653D;}
	.st3{fill:#F7AC16;}
	.st4{fill:#EED526;}
	.st5{fill:#ADD41C;}
	.st6{fill:#34B66D;}
	.st7{fill:none;stroke:#0AABB6;stroke-miterlimit:10;}
	.st8{fill:none;stroke:#335872;stroke-miterlimit:10;}
	.st9{fill:none;stroke:#FF653D;stroke-miterlimit:10;}
	.st10{fill:none;stroke:#F7AC16;stroke-miterlimit:10;}
	.st11{fill:none;stroke:#EED526;stroke-miterlimit:10;}
	.st12{fill:none;stroke:#ADD41C;stroke-miterlimit:10;}
	.st13{fill:none;stroke:#34B66D;stroke-miterlimit:10;}
	.st14{fill:none;stroke:#000000;stroke-width:9;stroke-linecap:round;stroke-linejoin:round;stroke-miterlimit:10;}
	.st15{fill:none;stroke:#000000;stroke-width:9;stroke-miterlimit:10;}
	.st16{fill:none;stroke:#000000;stroke-width:9;stroke-linejoin:round;stroke-miterlimit:10;}
	.st17{fill:#4B4B4B;}
	.st18{fill:#999999;}
	.st19{fill:#BBBBBB;}
	.st20{fill:#FFFFFF;}
	.st21{fill:#57C5F7;}
</style>
<g>
	<path class="st0" d="M123.6,339.3l-2.2-1.2l30.8-59.3c-43.9-22.9-71.1-64.3-71.1-108.4c0-35.3,14.4-69,39.5-92.7
		c25.9-24.4,61.4-36.5,99.9-34.1l-0.2,2.5c-37.8-2.3-72.7,9.6-98.1,33.5c-24.6,23.2-38.7,56.3-38.7,90.9
		c0,43.4,27.2,84.3,70.9,106.7l1.1,0.6L123.6,339.3z"/>
	<g>
		<path class="st1" d="M4.8,196.8l-0.6-2.4l64.2-14.8c-5.1-42.4,4.6-78.9,28.1-105.4c24.1-27.4,62-43,103.9-43
			c40.3,0,77.9,18.8,103.1,51.6l-2,1.5C276.8,52,239.9,33.6,200.4,33.6c-41.2,0-78.4,15.4-102,42.2C75.2,102,65.7,138.2,71,180.3
			l0.1,1.1L4.8,196.8z"/>
	</g>
	<path class="st2" d="M324,172.1l-2.4-0.8c3.7-11.6,5.6-23.8,5.6-36c0-67.2-56.3-121.8-125.6-121.8c-40.1,0-77.8,16.7-100.7,44.7
		l-0.8,0.9L43.9,15.7l1.5-2l54.3,42c23.5-28,61.5-44.7,101.9-44.7c70.6,0,128.1,55.8,128.1,124.3C329.7,147.8,327.8,160.2,324,172.1
		z"/>
	<path class="st3" d="M265,243.8l-0.9-2.3c49-19.9,80.7-64.6,80.7-113.7C344.8,61.9,288.7,7.4,217,3.7l0.1-2.5
		c73,3.8,130.1,59.4,130.1,126.6C347.3,177.9,315,223.5,265,243.8z"/>
	<path class="st4" d="M234.3,257.1c-22.4,0-44.6-5.4-64-15.6l1.2-2.2c19.1,10,40.8,15.3,62.8,15.3c70.6,0,128.1-53.5,128.1-119.3
		c0-28.9-10-57-27.3-77l-0.9-1l56.3-43.5l1.5,2l-54.2,41.9c17.2,20.4,27.1,48.6,27.1,77.7C364.9,202.5,306.3,257.1,234.3,257.1z"/>
	<path class="st5" d="M239.3,274.7c-65.9,0-120.9-46.3-125.3-105.4l2.5-0.2c4.3,57.8,58.2,103.1,122.8,103.1
		c60.4,0,112.1-37.8,125.6-92l0.3-1.2l69,15.3l-0.5,2.5L367,182C352.8,236.6,300.4,274.7,239.3,274.7z"/>
	<path class="st6" d="M314.8,341.8L285.1,280c-3,1.1-5.8,2.3-8.6,3.5c-10.7,4.5-20.8,8.8-38.5,8.8c-78,0-136.9-55.1-136.9-128.1
		c0-30.5,11.6-60.1,32.5-83.2l1.9,1.7c-20.6,22.7-31.9,51.7-31.9,81.6c0,71.6,57.8,125.6,134.4,125.6c17.2,0,27.1-4.2,37.5-8.6
		c3.1-1.3,6.3-2.7,9.7-3.9l1.1-0.4l30.6,63.8L314.8,341.8z"/>
</g>
</svg>
