<?xml version="1.0" encoding="utf-8"?>
<!-- Generator: Adobe Illustrator 21.0.0, SVG Export Plug-In . SVG Version: 6.00 Build 0)  -->
<svg version="1.1" id="图层_1" xmlns="http://www.w3.org/2000/svg" xmlns:xlink="http://www.w3.org/1999/xlink" x="0px" y="0px"
	 viewBox="0 0 200 200" style="enable-background:new 0 0 200 200;" xml:space="preserve">
<style type="text/css">
	.st0{fill:#0AABB6;}
	.st1{fill:#335872;}
	.st2{fill:#FF653D;}
	.st3{fill:#F7AC16;}
	.st4{fill:#EED526;}
	.st5{fill:#ADD41C;}
	.st6{fill:#34B66D;}
	.st7{fill:none;stroke:#0AABB6;stroke-miterlimit:10;}
	.st8{fill:none;stroke:#335872;stroke-miterlimit:10;}
	.st9{fill:none;stroke:#FF653D;stroke-miterlimit:10;}
	.st10{fill:none;stroke:#F7AC16;stroke-miterlimit:10;}
	.st11{fill:none;stroke:#EED526;stroke-miterlimit:10;}
	.st12{fill:none;stroke:#ADD41C;stroke-miterlimit:10;}
	.st13{fill:none;stroke:#34B66D;stroke-miterlimit:10;}
	.st14{fill:none;stroke:#000000;stroke-width:9;stroke-linecap:round;stroke-linejoin:round;stroke-miterlimit:10;}
	.st15{fill:none;stroke:#000000;stroke-width:9;stroke-miterlimit:10;}
	.st16{fill:none;stroke:#000000;stroke-width:9;stroke-linejoin:round;stroke-miterlimit:10;}
	.st17{fill:#4B4B4B;}
</style>
<g>
	<path class="st4" d="M80.9,32.4c5.1,0,8.6,4.1,8.6,9.2v62h0.1c-0.1,0.3-0.1,0.7-0.1,1c0,2.8,2.3,5.1,5.1,5.1c2.8,0,5.1-2.3,5.1-5.1
		c0-0.3,0-0.7-0.1-1h0.1V78.1c0-5.1,3.7-9.1,8.8-9.1c0,0,0,0,0,0c0.4,0,9,0.1,9,9.1v33.5h0.1c-0.1,0.3-0.1,0.7-0.1,1
		c0,2.8,2.3,5.1,5.1,5.1c2.8,0,5.1-2.3,5.1-5.1c0-0.3,0-0.7-0.1-1h0.1V88.3c0-5.1,3.6-9.2,8.7-9.2c0,0,9.2,0.6,9.2,9.2v29.5h0.1
		c-0.1,0.3-0.1,0.7-0.1,1c0,2.8,2.3,5.1,5.1,5.1c2.8,0,5-2.3,5-5.1c0-0.3,0-0.7-0.1-1h0.1V97.6c0-5.1,3.8-9.2,8.9-9.2c0,0,0,0,0.1,0
		c1.1,0,8.8,0.3,8.8,9.2V135c0,30.9-0.1,55.9-49.7,55.9c-21,0-33.6-4.7-43.1-14.2l-51.4-51.1c-4.6-4.6-3.4-10.4,0.3-14.1
		c1.9-1.9,4.7-2.9,7.3-2.9c2.6,0,5.1,0.9,6.8,2.6L60.6,128c5.9,5.8,11.1,11,11.1,11V41.5C71.7,36.4,75.8,32.4,80.9,32.4 M89.6,103.5
		L89.6,103.5 M117.6,111.6L117.6,111.6 M145.8,117.7L145.8,117.7 M80.9,23.3c-10.1,0-18.3,8.2-18.3,18.2v75.7l-12.4-12.3
		c-3.4-3.4-8.1-5.2-13.2-5.2c-5.2,0-10.2,2-13.8,5.5c-3.5,3.5-5.6,7.9-5.9,12.5C17,123,19,128.1,23,132.1l51.5,51.1
		c11.7,11.6,27,16.8,49.5,16.8c26.2,0,42.4-6.6,51.1-20.7c7.6-12.4,7.6-27.9,7.6-44.3V97.6c0-12-9-18.2-17.9-18.2
		c-0.1,0-0.2,0-0.3,0c-4,0-7.6,1.3-10.5,3.5c-2.5-8.7-11-12.4-17-12.8c-0.2,0-0.4,0-0.6,0c-3.9,0-7.5,1.2-10.4,3.4
		c-2-8.9-9.8-13.5-17.6-13.5c0,0,0,0,0,0c-3.7,0-7.1,1.1-9.9,3V41.5C98.6,31.3,90.8,23.3,80.9,23.3L80.9,23.3z"/>
	<path class="st4" d="M80.6,0C59,0,41.4,17.6,41.4,39.3c0,12.5,5.9,23.7,15.1,30.9V57.4c-3.8-5.1-6.1-11.3-6.1-18.1
		c0-13.6,9-25.1,21.4-28.9c2.8-0.8,5.7-1.3,8.8-1.3c3.4,0,6.6,0.6,9.7,1.6c11.9,4,20.5,15.3,20.5,28.6c0,1.8-0.2,3.6-0.5,5.4
		c3.1,0.3,6.1,1.3,8.6,3c0.6-2.7,0.9-5.5,0.9-8.4C119.9,17.6,102.3,0,80.6,0z"/>
</g>
</svg>
