<?xml version="1.0" encoding="utf-8"?>
<!-- Generator: Adobe Illustrator 21.0.0, SVG Export Plug-In . SVG Version: 6.00 Build 0)  -->
<svg version="1.1" id="图层_1" xmlns="http://www.w3.org/2000/svg" xmlns:xlink="http://www.w3.org/1999/xlink" x="0px" y="0px"
	 viewBox="0 0 200 200" style="enable-background:new 0 0 200 200;" xml:space="preserve">
<style type="text/css">
	.st0{fill:#0AABB6;}
	.st1{fill:#335872;}
	.st2{fill:#FF653D;}
	.st3{fill:#F7AC16;}
	.st4{fill:#EED526;}
	.st5{fill:#ADD41C;}
	.st6{fill:#34B66D;}
	.st7{fill:none;stroke:#0AABB6;stroke-miterlimit:10;}
	.st8{fill:none;stroke:#335872;stroke-miterlimit:10;}
	.st9{fill:none;stroke:#FF653D;stroke-miterlimit:10;}
	.st10{fill:none;stroke:#F7AC16;stroke-miterlimit:10;}
	.st11{fill:none;stroke:#EED526;stroke-miterlimit:10;}
	.st12{fill:none;stroke:#ADD41C;stroke-miterlimit:10;}
	.st13{fill:none;stroke:#34B66D;stroke-miterlimit:10;}
	.st14{fill:none;stroke:#000000;stroke-width:9;stroke-linecap:round;stroke-linejoin:round;stroke-miterlimit:10;}
	.st15{fill:none;stroke:#000000;stroke-width:9;stroke-miterlimit:10;}
	.st16{fill:none;stroke:#000000;stroke-width:9;stroke-linejoin:round;stroke-miterlimit:10;}
	.st17{fill:#4B4B4B;}
</style>
<g>
	<path class="st0" d="M113.1,120H140c6,0,10.9-4.9,10.9-10.9V92.5c0-6-4.9-10.9-10.9-10.9h-0.7l6.3-14.8c0.6-1.4,0.4-3-0.4-4.2
		s-2.2-2-3.8-2H70.9c0.8-2.3,1.2-4.6,1.2-6.8h-9c0,8.5-10.7,19-16,19v9c6.6,0,14.1-5.3,19.1-12.3c0.2,0,0.3,0,0.5,0h67.9l-5.1,12.1
		H61.3c-6,0-10.9,4.9-10.9,10.9V109c0,6,4.9,10.9,10.9,10.9h21c-9.7,12.9-23.6,21.9-35.2,21.9v9c12.5,0,26.7-7.5,37.9-20
		c3.1-3.4,5.8-7.1,8.2-10.9h10.9V145c0,2.5,2,4.5,4.5,4.5h44.2v-9h-39.7V120z M88,111H61.3c-1.1,0-1.9-0.9-1.9-1.9V92.5
		c0-1.1,0.9-1.9,1.9-1.9h32.9C93.6,97.6,91.4,104.6,88,111z M98,111c2.9-6.7,4.7-13.6,5.2-20.4H140c1.1,0,1.9,0.9,1.9,1.9V109
		c0,1.1-0.9,1.9-1.9,1.9H98z"/>
	<path class="st0" d="M100,0C44.9,0,0,44.9,0,100s44.9,100,100,100s100-44.9,100-100S155.1,0,100,0z M100,191c-50.2,0-91-40.8-91-91
		S49.8,9,100,9s91,40.8,91,91S150.2,191,100,191z"/>
</g>
</svg>
