<?xml version="1.0" encoding="utf-8"?>
<!-- Generator: Adobe Illustrator 21.0.0, SVG Export Plug-In . SVG Version: 6.00 Build 0)  -->
<svg version="1.1" id="图层_1" xmlns="http://www.w3.org/2000/svg" xmlns:xlink="http://www.w3.org/1999/xlink" x="0px" y="0px"
	 viewBox="0 0 200 200" style="enable-background:new 0 0 200 200;" xml:space="preserve">
<style type="text/css">
	.st0{fill:#0AABB6;}
	.st1{fill:#335872;}
	.st2{fill:#FF653D;}
	.st3{fill:#F7AC16;}
	.st4{fill:#EED526;}
	.st5{fill:#ADD41C;}
	.st6{fill:#34B66D;}
	.st7{fill:none;stroke:#0AABB6;stroke-miterlimit:10;}
	.st8{fill:none;stroke:#335872;stroke-miterlimit:10;}
	.st9{fill:none;stroke:#FF653D;stroke-miterlimit:10;}
	.st10{fill:none;stroke:#F7AC16;stroke-miterlimit:10;}
	.st11{fill:none;stroke:#EED526;stroke-miterlimit:10;}
	.st12{fill:none;stroke:#ADD41C;stroke-miterlimit:10;}
	.st13{fill:none;stroke:#34B66D;stroke-miterlimit:10;}
	.st14{fill:none;stroke:#000000;stroke-width:9;stroke-linecap:round;stroke-linejoin:round;stroke-miterlimit:10;}
	.st15{fill:none;stroke:#000000;stroke-width:9;stroke-miterlimit:10;}
	.st16{fill:none;stroke:#000000;stroke-width:9;stroke-linejoin:round;stroke-miterlimit:10;}
	.st17{fill:#4B4B4B;}
</style>
<g>
	<rect x="63.9" y="63.8" class="st6" width="18" height="18"/>
	<rect x="118.4" y="63.8" class="st6" width="18" height="18"/>
	<path class="st6" d="M192,63.7H187c-11.5-36.9-45.9-63.8-86.6-63.8c-40.7,0-75.1,26.8-86.6,63.8H8c-4.4,0-8,3.6-8,8v47.6
		c0,4.4,3.6,8,8,8h20.4c4.4,0,8-3.6,8-8V71.7c0-4.4-3.6-8-8-8h-5C34.5,31.9,64.8,8.9,100.4,8.9s65.9,22.9,77.1,54.8h-5.8
		c-4.4,0-8,3.6-8,8v47.6c0,4.4,3.6,8,8,8h1.7c-9.5,18.8-26.1,33.5-46.3,40.5c-2.4-12.7-13.5-22.3-26.8-22.3
		c-15.1,0-27.3,12.2-27.3,27.3c0,15.1,12.2,27.3,27.3,27.3c13.5,0,24.8-9.9,26.9-22.8c25.2-7.7,45.6-26.1,56.2-49.9h8.7
		c4.4,0,8-3.6,8-8V71.7C200,67.3,196.4,63.7,192,63.7z M27.3,118.3H9V72.7h18.3V118.3z M100.2,191c-10,0-18.2-8.2-18.2-18.2
		c0-10,8.2-18.2,18.2-18.2c10,0,18.2,8.2,18.2,18.2C118.4,182.8,110.2,191,100.2,191z M191,118.3h-18.3V72.7H191V118.3z"/>
	<path class="st6" d="M142,109.2h-10.1c-6.3,10.9-18.1,18.3-31.6,18.3s-25.3-7.4-31.6-18.3H58.7c7,16,23,27.3,41.7,27.3
		S135,125.2,142,109.2z"/>
</g>
</svg>
