<?xml version="1.0" encoding="utf-8"?>
<!-- Generator: Adobe Illustrator 21.0.0, SVG Export Plug-In . SVG Version: 6.00 Build 0)  -->
<svg version="1.1" id="图层_1" xmlns="http://www.w3.org/2000/svg" xmlns:xlink="http://www.w3.org/1999/xlink" x="0px" y="0px"
	 viewBox="0 0 200 200" style="enable-background:new 0 0 200 200;" xml:space="preserve">
<style type="text/css">
	.st0{fill:#0AABB6;}
	.st1{fill:#335872;}
	.st2{fill:#FF653D;}
	.st3{fill:#F7AC16;}
	.st4{fill:#EED526;}
	.st5{fill:#ADD41C;}
	.st6{fill:#34B66D;}
	.st7{fill:none;stroke:#0AABB6;stroke-miterlimit:10;}
	.st8{fill:none;stroke:#335872;stroke-miterlimit:10;}
	.st9{fill:none;stroke:#FF653D;stroke-miterlimit:10;}
	.st10{fill:none;stroke:#F7AC16;stroke-miterlimit:10;}
	.st11{fill:none;stroke:#EED526;stroke-miterlimit:10;}
	.st12{fill:none;stroke:#ADD41C;stroke-miterlimit:10;}
	.st13{fill:none;stroke:#34B66D;stroke-miterlimit:10;}
	.st14{fill:none;stroke:#000000;stroke-width:9;stroke-linecap:round;stroke-linejoin:round;stroke-miterlimit:10;}
	.st15{fill:none;stroke:#000000;stroke-width:9;stroke-miterlimit:10;}
	.st16{fill:none;stroke:#000000;stroke-width:9;stroke-linejoin:round;stroke-miterlimit:10;}
	.st17{fill:#4B4B4B;}
</style>
<path class="st2" d="M160.9,20.1c-3-2.3-6.1-4.4-9.4-6.3c-1.6-0.9-3.2-1.9-4.9-2.7c-4.6-2.4-9.4-4.4-14.4-6c-9.9-3.3-20.4-5-31.4-5
	c-1.3,0-2.6,0-3.9,0.1c-3.1,0.1-6.1,0.4-9,0.8C45.5,6.3,11.5,38.3,2.9,79.5c-0.8,3.8-1.4,7.7-1.7,11.7C1,94.1,0.8,97,0.8,100
	c0,55.2,44.8,100,100,100c38.9,0,72.6-22.2,89.1-54.6c1.4-2.7,2.6-5.4,3.7-8.3c0.6-1.5,1.1-2.9,1.6-4.4c1.3-3.7,2.3-7.4,3.2-11.3
	c1.5-6.9,2.3-14,2.3-21.4C200.8,67.3,185.2,38.3,160.9,20.1z M152.1,24.8c0,0.3,0,0.7,0,1c0,9.9-1.1,19.7-3.1,29.2
	c-6.3,1.2-11,6.7-11,13.3c0,3.7,1.5,7.1,4,9.6C139,85,135.4,92,131.3,98.6c-17.8-19.5-29.2-43.4-33.2-69.2
	c10.5-6.5,21.9-11.5,33.7-14.9C139.1,17.1,145.8,20.6,152.1,24.8z M114.1,133.3c6.8-6.3,12.9-13.2,18.4-20.6
	c8.9,8.3,18.8,15.5,29.5,21.3c-11.2,2.4-22.8,3.7-34.5,3.7c-4.4,0-8.8-0.2-13.2-0.5c0-0.3,0-0.5,0-0.8
	C114.5,135.2,114.3,134.2,114.1,133.3z M100.8,9c5.3,0,10.4,0.5,15.4,1.3c-6.7,2.6-13.1,5.7-19.2,9.3c-0.3-3.5-0.4-7-0.4-10.5
	C98,9,99.4,9,100.8,9z M126.1,106.2c-4.3,5.9-9.1,11.5-14.3,16.8c-0.9,0.9-1.7,1.7-2.6,2.5c-2.3-1.8-5.1-2.8-8.2-2.8
	c-6.2,0-11.5,4.2-13,10c-18-4.5-35.1-12-50.5-22.3C41.5,95.2,48.2,80.9,57.3,68c0.9,0.2,1.9,0.3,2.9,0.3c7.5,0,13.5-6,13.5-13.5
	c0-1.8-0.4-3.6-1-5.2c0.1-0.1,0.2-0.2,0.3-0.3c5.3-5.3,11-10.2,17.1-14.5C95,62.2,107.8,86.8,126.1,106.2z M23.6,148.1
	c-8.7-14-13.8-30.5-13.8-48.1c0-0.1,0-0.1,0-0.2c5.5,5.2,11.3,10,17.4,14.4c-2.3,10.4-3.6,21.2-3.6,32.4
	C23.6,147.1,23.6,147.6,23.6,148.1z M29.7,104.9c-6-4.5-11.8-9.5-17.2-15c-0.6-0.6-1.2-1.3-1.9-1.9c5.3-40.2,37-72.2,77-78
	c0,5.1,0.3,10,0.9,14.9c-7.9,5.3-15.2,11.3-21.9,18c-1.9-1-4.1-1.6-6.4-1.6c-7.5,0-13.5,6-13.5,13.5c0,3.2,1.1,6.1,3,8.5
	C40.9,75.8,34.1,89.8,29.7,104.9z M33.4,161c-0.5-4.8-0.8-9.6-0.8-14.4c0-9.1,0.9-18.1,2.6-26.9c16,10.2,33.9,17.9,52.9,22.4
	c-16.3,10.4-34.7,17.1-53.9,19.9C33.9,161.6,33.7,161.3,33.4,161z M100.8,191c-22.3,0-42.7-8-58.5-21.3c19.1-3.7,36.9-11,52.6-21.4
	c1.8,0.9,3.9,1.4,6,1.4c3.7,0,7.1-1.5,9.6-4c5.6,0.6,11.3,0.8,17,0.8c16.4,0,32.2-2.3,47.2-6.6c2.1,0.9,4.3,1.7,6.5,2.5
	C166,171.3,135.7,191,100.8,191z M188,126c-4.2,1.7-8.4,3.2-12.7,4.5c-13.7-6.1-26.5-14.6-37.6-25.3c4.8-7.4,8.9-15.2,12.3-23.5
	c0.5,0,0.9,0.1,1.4,0.1c7.5,0,13.5-6,13.5-13.5c0-5.1-2.9-9.6-7.1-11.9c1.7-8,2.8-16.2,3.1-24.7c18.9,16.7,30.9,41.1,30.9,68.3
	C191.8,109,190.5,117.8,188,126z"/>
</svg>
