<svg id="图层_1" data-name="图层 1" xmlns="http://www.w3.org/2000/svg" viewBox="0 0 160 160"><defs><style>.cls-1{fill:#a0498d;}.cls-2{font-size:19px;font-family:MicrosoftYaHei, Microsoft YaHei;}.cls-2,.cls-4{fill:#fff;}.cls-3{fill:none;stroke:#fff;stroke-linecap:round;stroke-linejoin:round;stroke-width:3.75px;}</style></defs><title>iconfontquanzi</title><rect class="cls-1" width="160" height="160"/><text class="cls-2" transform="translate(32.50024 136.56339)">企业服务号</text><path class="cls-3" d="M123.55465,55.0493a43.24324,43.24324,0,0,0-16.28956-29.39312"/><path class="cls-3" d="M99.40049,42.11562a25.89019,25.89019,0,0,1,5.8492,10.458"/><path class="cls-4" d="M85.88842,18.47993l5.88849,10.19914L85.88848,38.8782H74.11154L68.22308,28.67907l5.88846-10.19914H85.88842m2.63391-4.562H71.47766L62.95532,28.67907l8.52234,14.76112H88.52233l8.52234-14.76112L88.52233,13.91793Z"/><path class="cls-3" d="M54.27505,24.16734A43.24324,43.24324,0,0,0,36.96465,52.97108"/><path class="cls-3" d="M55.15124,51.55231a25.89019,25.89019,0,0,1,6.1323-10.29457"/><path class="cls-4" d="M59.10354,64.87277,64.992,75.07191,59.10354,85.271H47.32662L41.43817,75.07191l5.88846-10.19914H59.10354m2.63388-4.562H44.69274L36.17041,75.07191,44.69274,89.833H61.73742l8.52234-14.76112L61.73742,60.31077Z"/><path class="cls-3" d="M62.17029,99.60622a43.24324,43.24324,0,0,0,33.6.58938"/><path class="cls-3" d="M85.44828,85.15494a25.89019,25.89019,0,0,1-11.98151-.16345"/><path class="cls-4" d="M112.67333,64.87277l5.88849,10.19914L112.6734,85.271h-11.777L95.008,75.07191l5.88849-10.19914h11.77686m2.63391-4.562H98.26257L89.74023,75.07191,98.26257,89.833h17.04468l8.52234-14.76112-8.52234-14.76114Z"/></svg>