<svg id="图层_1" data-name="图层 1" xmlns="http://www.w3.org/2000/svg" viewBox="0 0 160 160"><defs><style>.cls-1{fill:#c692bb;}.cls-2{font-size:19px;font-family:MicrosoftYaHei, Microsoft YaHei;}.cls-2,.cls-5{fill:#fff;}.cls-3,.cls-4{fill:none;}.cls-4{stroke:#fff;stroke-linecap:round;stroke-linejoin:round;stroke-width:3.75px;}</style></defs><title>iconfontquanzi</title><rect class="cls-1" width="160" height="160"/><text class="cls-2" transform="translate(32.49951 136.56345)">企业服务号</text><rect class="cls-3" x="36.36598" y="15.11089" width="87.26803" height="87.38489"/><path class="cls-4" d="M123.55465,55.0493a43.24324,43.24324,0,0,0-16.28956-29.39312"/><path class="cls-4" d="M99.40049,42.11562a25.89019,25.89019,0,0,1,5.8492,10.458"/><path class="cls-5" d="M85.88844,18.47993l5.88849,10.19914L85.8885,38.8782h-11.777L68.22309,28.67907l5.88849-10.19914H85.88844m2.63391-4.562H71.47767L62.95533,28.67907l8.52234,14.76112H88.52235l8.52234-14.76112L88.52235,13.91793Z"/><path class="cls-4" d="M54.27505,24.16734A43.24324,43.24324,0,0,0,36.96465,52.97108"/><path class="cls-4" d="M55.15124,51.55231a25.89019,25.89019,0,0,1,6.1323-10.29457"/><path class="cls-5" d="M59.10353,64.87277,64.992,75.07191,59.10359,85.271h-11.777L41.43818,75.07191l5.88849-10.19914H59.10353m2.63391-4.562H44.69276L36.17042,75.07191,44.69276,89.833H61.73744l8.52234-14.76112L61.73744,60.31077Z"/><path class="cls-4" d="M62.17029,99.60622a43.24324,43.24324,0,0,0,33.6.58938"/><path class="cls-4" d="M85.44828,85.15494a25.89019,25.89019,0,0,1-11.98151-.16345"/><path class="cls-5" d="M112.67335,64.87277l5.88849,10.19914L112.67341,85.271h-11.777L95.008,75.07191l5.88849-10.19914h11.77686m2.63391-4.562H98.26258L89.74024,75.07191,98.26258,89.833h17.04468l8.52234-14.76112-8.52234-14.76114Z"/></svg>