<svg id="图层_1" data-name="图层 1" xmlns="http://www.w3.org/2000/svg" viewBox="0 0 160 160"><defs><style>.cls-1{fill:#8e8eff;}.cls-2,.cls-3{fill:#fff;}.cls-3{font-size:19px;font-family:MicrosoftYaHei, Microsoft YaHei;}</style></defs><title>iconfontquanzi</title><rect class="cls-1" width="160" height="160"/><path class="cls-2" d="M47.20921,85.132a1.46916,1.46916,0,0,1-1.46749-1.46752V21.71633a1.46914,1.46914,0,0,1,1.46749-1.46749H99.6768a1.46914,1.46914,0,0,1,1.46749,1.46749v6.23581h4.13784V21.71633A5.60535,5.60535,0,0,0,99.6768,16.111H47.20921a5.60535,5.60535,0,0,0-5.60533,5.60533V83.6645a5.60534,5.60534,0,0,0,5.60533,5.60535h7.50868V85.132Z"/><path class="cls-2" d="M112.79079,27.95214H60.32322a5.60533,5.60533,0,0,0-5.60533,5.60536V95.50566a5.60531,5.60531,0,0,0,5.60533,5.60533h52.46757a5.60531,5.60531,0,0,0,5.60533-5.60533V33.5575A5.60534,5.60534,0,0,0,112.79079,27.95214Zm1.46749,67.55353a1.46914,1.46914,0,0,1-1.46749,1.46749H60.32322a1.46914,1.46914,0,0,1-1.46749-1.46749V33.5575A1.46916,1.46916,0,0,1,60.32322,32.09h52.46757a1.46916,1.46916,0,0,1,1.46749,1.46752Z"/><path class="cls-2" d="M90.17687,71.3498a1.60107,1.60107,0,0,0,2.36985.59192l10.3662-5.92369a1.64176,1.64176,0,0,0,.59192-2.36913,1.59991,1.59991,0,0,0-2.36927-.59206L90.76952,68.98A1.60117,1.60117,0,0,0,90.17687,71.3498Z"/><path class="cls-2" d="M83.36523,55.652l10.36606-5.92311a2.14644,2.14644,0,0,0,.59206-2.36985,1.60012,1.60012,0,0,0-2.36927-.59206l-10.3662,5.92311A1.72713,1.72713,0,1,0,83.36523,55.652Z"/><path class="cls-2" d="M90.17687,67.49936l10.3662-5.92369L94.62,51.20946,84.25318,57.13315,86.424,60.93193,67.6674,70.75716a2.41968,2.41968,0,0,0-.88867,3.55384,2.82594,2.82594,0,0,0,3.55442.88867l17.792-11.29081Z"/><path class="cls-2" d="M104.986,80.82733V79.05012a1.91108,1.91108,0,0,0-1.77721-1.77721H88.10363a1.9112,1.9112,0,0,0-1.77721,1.77721c0,1.18457-.296,1.77721.29661,2.07324H84.84583v1.48117h21.917v-1.7772Z"/><text class="cls-3" transform="translate(32.49951 136.56351)">企业招投标</text></svg>