<svg id="图层_1" data-name="图层 1" xmlns="http://www.w3.org/2000/svg" viewBox="0 0 160 160"><defs><style>.cls-1{fill:#7cd1c1;}.cls-2{font-size:19px;font-family:MicrosoftYaHei, Microsoft YaHei;}.cls-2,.cls-3{fill:#fff;}</style></defs><title>tubiao</title><rect class="cls-1" x="0.00016" width="160" height="160"/><text class="cls-2" transform="translate(32.5003 136.56341)">招投标管理</text><path class="cls-3" d="M89.50017,22.42532a1.4572,1.4572,0,0,1,1.438,1.438v19a1.4572,1.4572,0,0,1-1.438,1.438h-19a1.4572,1.4572,0,0,1-1.438-1.438v-19a1.4572,1.4572,0,0,1,1.438-1.438h19m0-4.562h-19a6.01762,6.01762,0,0,0-6,6v19a6.01762,6.01762,0,0,0,6,6h19a6.01762,6.01762,0,0,0,6-6v-19a6.01762,6.01762,0,0,0-6-6Z"/><path class="cls-3" d="M61.75017,73.22745a1.4572,1.4572,0,0,1,1.438,1.438v19a1.4572,1.4572,0,0,1-1.438,1.438h-19a1.4572,1.4572,0,0,1-1.438-1.438v-19a1.4572,1.4572,0,0,1,1.438-1.438h19m0-4.562h-19a6.01758,6.01758,0,0,0-6,6v19a6.01762,6.01762,0,0,0,6,6h19a6.01762,6.01762,0,0,0,6-6v-19a6.01758,6.01758,0,0,0-6-6Z"/><path class="cls-3" d="M117.25017,73.22745a1.4572,1.4572,0,0,1,1.438,1.438v19a1.4572,1.4572,0,0,1-1.438,1.438h-19a1.4572,1.4572,0,0,1-1.438-1.438v-19a1.4572,1.4572,0,0,1,1.438-1.438h19m0-4.562h-19a6.01758,6.01758,0,0,0-6,6v19a6.01762,6.01762,0,0,0,6,6h19a6.01762,6.01762,0,0,0,6-6v-19a6.01758,6.01758,0,0,0-6-6Z"/><path class="cls-3" d="M54.5621,62.11051h50.876v8.813h4.562V59.8154a2.26689,2.26689,0,0,0-2.26685-2.26691H53.62655a3.62636,3.62636,0,0,0-3.62646,3.62634v9.74866h4.562Z"/><rect class="cls-3" x="77.81259" y="47.11331" width="4.56201" height="12.5"/></svg>