<svg id="图层_1" data-name="图层 1" xmlns="http://www.w3.org/2000/svg" viewBox="0 0 160 160"><defs><style>.cls-1{fill:#29ccb6;}.cls-2{font-size:19px;font-family:MicrosoftYaHei, Microsoft YaHei;}.cls-2,.cls-3{fill:#fff;}</style></defs><title>图标</title><rect class="cls-1" x="0.00088" y="0.00158" width="160" height="160"/><text class="cls-2" transform="translate(42.00049 136.56505)">招标定制</text><path class="cls-3" d="M118.97417,92.4813,104.71611,80.48667l.59277-.709.2041.17456a3.81215,3.81215,0,0,0,5.37061-.46631l2.36035-2.81641a3.77214,3.77214,0,0,0,.88354-2.7876,3.81014,3.81014,0,0,0-1.34985-2.593l-10.62524-8.91626a3.78073,3.78073,0,0,0-2.45752-.89355,3.81951,3.81951,0,0,0-2.9231,1.35962l-2.36035,2.81714a3.8275,3.8275,0,0,0,.46606,5.38062l.2041.17456-8.479,10.10083-.2041-.17456a3.77809,3.77809,0,0,0-2.45679-.89355,3.81963,3.81963,0,0,0-2.92383,1.35986L78.65752,84.42a3.82861,3.82861,0,0,0,.46631,5.38086l10.62573,8.92554a3.81209,3.81209,0,0,0,5.37085-.46606l2.36011-2.81641a3.82536,3.82536,0,0,0-.47583-5.38086l-.2041-.175.573-.67969,14.30615,11.94629a3.81332,3.81332,0,0,0,5.37158-.46631l2.35962-2.81641a3.73516,3.73516,0,0,0,.91357-2.79712A3.81324,3.81324,0,0,0,118.97417,92.4813Zm-4.93579,4.69946L100.29766,85.70664a4.56215,4.56215,0,0,0-6.41211.56128l-.573.67969a4.56239,4.56239,0,0,0,.21143,6.115l-1.41455,1.68823-9.48218-7.96509,1.42017-1.69458a4.56314,4.56314,0,0,0,2.55493.78271c.12524,0,.25122-.00513.377-.01562A4.56331,4.56331,0,0,0,90.09673,84.245l8.479-10.10083a4.56245,4.56245,0,0,0-.21216-6.10205l1.42358-1.699,9.48706,7.96094-1.4165,1.69019a4.56145,4.56145,0,0,0-2.54858-.77856q-.19043,0-.38135.01611a4.56227,4.56227,0,0,0-3.1189,1.61987l-.59277.709a4.5619,4.5619,0,0,0,.56323,6.417l13.67944,11.50781Z"/><path class="cls-3" d="M83.83208,40.32114a2.06123,2.06123,0,0,0-2.06128-2.06152H54.69414a2.06152,2.06152,0,0,0,0,4.123H81.7708A2.06123,2.06123,0,0,0,83.83208,40.32114Z"/><path class="cls-3" d="M54.71343,61.39145a2.06152,2.06152,0,1,0,0,4.123H80.4561a2.06152,2.06152,0,0,0,0-4.123Z"/><path class="cls-3" d="M67.29033,97.6417H45.88921a1.6865,1.6865,0,0,1-1.66431-1.66431V20.81528A1.68666,1.68666,0,0,1,45.88921,19.151h41.884V33.39536a9.52935,9.52935,0,0,0,9.51855,9.51855h13.72583V53.787a2.281,2.281,0,1,0,4.562,0V36.49546L94.26714,14.589H45.88921a6.24467,6.24467,0,0,0-6.22632,6.22632V95.97739a6.24467,6.24467,0,0,0,6.22632,6.22632H67.29033a2.281,2.281,0,0,0,0-4.562ZM92.33525,19.14487v.00049l.00537.00562L110.93193,38.2623l.08569.08789.00171.00171H97.2918a4.962,4.962,0,0,1-4.95654-4.95654v-14.25l-.00073-.00049Z"/></svg>